<?xml version="1.0" encoding="utf-8"?>
<!-- Generator: Adobe Illustrator 15.1.0, SVG Export Plug-In . SVG Version: 6.00 Build 0)  -->
<!DOCTYPE svg PUBLIC "-//W3C//DTD SVG 1.1//EN" "http://www.w3.org/Graphics/SVG/1.1/DTD/svg11.dtd">
<svg version="1.1" xmlns="http://www.w3.org/2000/svg" xmlns:xlink="http://www.w3.org/1999/xlink" x="0px" y="0px"
	 width="1078.189px" height="777.813px" viewBox="0 0 1078.189 777.813" enable-background="new 0 0 1078.189 777.813"
	 xml:space="preserve">
<symbol  id="Silo_4_" viewBox="-70.601 -105.576 141.202 211.152">
	<g>
		<g>
			<g>
				
					<path fill="none" stroke="#FFFFFF" stroke-width="5" stroke-linecap="round" stroke-linejoin="round" stroke-miterlimit="10" d="
					M47.983,93.245c-26.678,13.108-69.793,13.108-96.298-0.001c-26.503-13.108-26.362-34.367,0.313-47.475
					c26.679-13.109,69.795-13.109,96.298,0C74.799,58.878,74.659,80.135,47.983,93.245"/>
			</g>
		</g>
	</g>
	<g>
		<g>
			<path fill="none" stroke="#FFFFFF" stroke-width="5" stroke-linecap="round" stroke-linejoin="round" stroke-miterlimit="10" d="
				M-68.075,69.507h-0.005v-0.118C-68.08,69.429-68.075,69.467-68.075,69.507z"/>
			<path fill="none" stroke="#FFFFFF" stroke-width="5" stroke-linecap="round" stroke-linejoin="round" stroke-miterlimit="10" d="
				M68.087,69.507c0.16-8.657-6.422-17.331-19.774-23.938c-26.503-13.108-69.619-13.108-96.298,0
				c-13.306,6.539-20.006,15.105-20.095,23.676l-0.016-138.75c0.056-8.596,6.759-17.186,20.1-23.739
				c26.677-13.109,69.794-13.109,96.297,0c13.251,6.555,19.843,15.147,19.784,23.739l0.016,139.012H68.087z"/>
		</g>
	</g>
</symbol>
<g id="Achtergrond">
	<rect x="-2196.379" stroke="#FFFFFF" stroke-miterlimit="10" width="1078.189" height="777.813"/>
	<rect x="-1098.189" stroke="#FFFFFF" stroke-miterlimit="10" width="1078.189" height="777.813"/>
	<rect stroke="#FFFFFF" stroke-miterlimit="10" width="1078.189" height="777.813"/>
</g>
<g id="School">
	<g>
		
			<rect x="-1938.279" y="179.293" fill="none" stroke="#FFFFFF" stroke-width="5" stroke-linecap="round" stroke-linejoin="round" stroke-miterlimit="10" width="352.092" height="114.843"/>
		<text transform="matrix(1 0 0 1 -1917.0059 272.3481)" fill="#FFFFFF" font-family="'OpenSans-Semibold'" font-size="97.3366">School</text>
	</g>
	
		<line fill="none" stroke="#FFFFFF" stroke-width="5" stroke-linecap="round" stroke-linejoin="round" stroke-miterlimit="10" x1="-2084.771" y1="713.531" x2="-1218.76" y2="713.531"/>
	<path fill="none" stroke="#FFFFFF" stroke-width="5" stroke-linecap="round" stroke-linejoin="round" stroke-miterlimit="10" d="
		M-1369.753,606.696c4.868-3.337,8.067-8.937,8.067-15.286c0-7.978-5.052-14.757-12.123-17.365
		c-0.079-9.91-8.132-17.92-18.061-17.92c-5.687,0-10.753,2.631-14.064,6.736c-3.301-2.268-7.278-3.618-11.586-3.618
		c-11.368,0-20.584,9.216-20.584,20.583c0,1.639,0.211,3.225,0.572,4.752c-7.692,0.37-13.821,6.706-13.821,14.491
		c0,6.994,4.943,12.83,11.525,14.215c-3.207,2.663-5.252,6.682-5.252,11.177c0,8.021,6.503,14.523,14.522,14.523
		c0.018,0,0.031-0.004,0.047-0.004c-0.021,0.306-0.047,0.61-0.047,0.919c0,7.199,5.837,13.037,13.038,13.037
		c4.932,0,9.222-2.742,11.436-6.779c3.086,4.554,8.299,7.545,14.215,7.545c9.473,0,17.153-7.678,17.153-17.151
		c0-1.521-0.219-2.983-0.589-4.384c0.854,0.173,1.734,0.267,2.64,0.267c7.199,0,13.037-5.835,13.037-13.035
		C-1359.628,613.197-1363.956,608.02-1369.753,606.696z"/>
	<path fill="none" stroke="#FFFFFF" stroke-width="5" stroke-linecap="round" stroke-linejoin="round" stroke-miterlimit="10" d="
		M-1311.871,631.444c-5.803,1.083-12.021-0.615-16.512-5.104c-5.64-5.641-6.861-14.007-3.706-20.853
		c-6.951-7.062-6.921-18.42,0.1-25.442c4.021-4.021,9.463-5.741,14.705-5.179c0.732-3.938,2.588-7.705,5.635-10.755
		c8.038-8.036,21.072-8.036,29.111,0.003c1.158,1.156,2.129,2.427,2.953,3.765c5.703-5.18,14.516-5.031,20.02,0.473
		c4.947,4.946,5.576,12.569,1.9,18.201c4.152-0.386,8.439,1.011,11.617,4.188c5.673,5.673,5.673,14.868,0,20.539
		c-0.012,0.012-0.022,0.021-0.033,0.032c0.229,0.199,0.463,0.396,0.682,0.615c5.091,5.093,5.091,13.344,0,18.437
		c-3.487,3.485-8.46,4.583-12.881,3.291c1.039,5.401-0.531,11.207-4.714,15.388c-6.699,6.699-17.559,6.699-24.26,0
		c-1.073-1.072-1.955-2.263-2.686-3.516c-0.479,0.727-1.036,1.415-1.675,2.055c-5.093,5.093-13.347,5.093-18.438,0
		C-1314.432,643.202-1315.032,636.479-1311.871,631.444z"/>
	<path fill="none" stroke="#FFFFFF" stroke-width="5" stroke-linecap="round" stroke-linejoin="round" stroke-miterlimit="10" d="
		M-1406.083,646.155c-1.393,2.539-3.608,4.562-6.286,5.717l-2.133,61.659h19.519l-1.57-60.484
		C-1400.486,651.93-1403.847,649.458-1406.083,646.155z"/>
	<path fill="none" stroke="#FFFFFF" stroke-width="5" stroke-linecap="round" stroke-linejoin="round" stroke-miterlimit="10" d="
		M-1287.252,649.043c-1.073-1.074-1.956-2.265-2.687-3.516c-0.479,0.728-1.036,1.415-1.675,2.056
		c-0.926,0.926-1.958,1.678-3.054,2.268l-2.205,63.68h19.518l-1.554-59.901C-1281.964,652.941-1284.873,651.423-1287.252,649.043z"
		/>
	
		<rect x="-2039.006" y="320.978" fill="none" stroke="#FFFFFF" stroke-width="5" stroke-linecap="round" stroke-linejoin="round" stroke-miterlimit="10" width="553.546" height="392.553"/>
	<g>
		
			<rect x="-1900.912" y="295.736" fill="none" stroke="#FFFFFF" stroke-width="5" stroke-linecap="round" stroke-linejoin="round" stroke-miterlimit="10" width="29.257" height="23.642"/>
		
			<rect x="-1652.812" y="295.736" fill="none" stroke="#FFFFFF" stroke-width="5" stroke-linecap="round" stroke-linejoin="round" stroke-miterlimit="10" width="29.258" height="23.642"/>
	</g>
	
		<rect x="-1807.835" y="597.167" fill="none" stroke="#FFFFFF" stroke-width="5" stroke-linecap="round" stroke-linejoin="round" stroke-miterlimit="10" width="45.603" height="116.363"/>
	
		<rect x="-1760.437" y="597.167" fill="none" stroke="#FFFFFF" stroke-width="5" stroke-linecap="round" stroke-linejoin="round" stroke-miterlimit="10" width="45.602" height="116.363"/>
	
		<rect x="-2011.521" y="597.167" fill="none" stroke="#FFFFFF" stroke-width="5" stroke-linecap="round" stroke-linejoin="round" stroke-miterlimit="10" width="158.105" height="60.854"/>
	
		<rect x="-1671.05" y="597.167" fill="none" stroke="#FFFFFF" stroke-width="5" stroke-linecap="round" stroke-linejoin="round" stroke-miterlimit="10" width="158.105" height="60.854"/>
	
		<line fill="none" stroke="#FFFFFF" stroke-width="5" stroke-linecap="round" stroke-linejoin="round" stroke-miterlimit="10" x1="-1932.469" y1="597.167" x2="-1932.469" y2="658.022"/>
	
		<rect x="-2011.521" y="478.968" fill="none" stroke="#FFFFFF" stroke-width="5" stroke-linecap="round" stroke-linejoin="round" stroke-miterlimit="10" width="158.105" height="60.854"/>
	
		<line fill="none" stroke="#FFFFFF" stroke-width="5" stroke-linecap="round" stroke-linejoin="round" stroke-miterlimit="10" x1="-1932.469" y1="478.968" x2="-1932.469" y2="539.823"/>
	
		<rect x="-2011.521" y="360.765" fill="none" stroke="#FFFFFF" stroke-width="5" stroke-linecap="round" stroke-linejoin="round" stroke-miterlimit="10" width="158.105" height="60.86"/>
	
		<line fill="none" stroke="#FFFFFF" stroke-width="5" stroke-linecap="round" stroke-linejoin="round" stroke-miterlimit="10" x1="-1932.469" y1="360.765" x2="-1932.469" y2="421.625"/>
	
		<rect x="-1671.05" y="360.765" fill="none" stroke="#FFFFFF" stroke-width="5" stroke-linecap="round" stroke-linejoin="round" stroke-miterlimit="10" width="158.105" height="60.86"/>
	
		<line fill="none" stroke="#FFFFFF" stroke-width="5" stroke-linecap="round" stroke-linejoin="round" stroke-miterlimit="10" x1="-1591.998" y1="360.765" x2="-1591.998" y2="421.625"/>
	
		<rect x="-1798.167" y="360.765" fill="none" stroke="#FFFFFF" stroke-width="5" stroke-linecap="round" stroke-linejoin="round" stroke-miterlimit="10" width="79.053" height="60.86"/>
	
		<rect x="-1798.167" y="478.968" fill="none" stroke="#FFFFFF" stroke-width="5" stroke-linecap="round" stroke-linejoin="round" stroke-miterlimit="10" width="79.053" height="60.854"/>
	
		<rect x="-1671.05" y="478.968" fill="none" stroke="#FFFFFF" stroke-width="5" stroke-linecap="round" stroke-linejoin="round" stroke-miterlimit="10" width="158.105" height="60.854"/>
	
		<line fill="none" stroke="#FFFFFF" stroke-width="5" stroke-linecap="round" stroke-linejoin="round" stroke-miterlimit="10" x1="-1591.998" y1="478.968" x2="-1591.998" y2="539.823"/>
	
		<line fill="none" stroke="#FFFFFF" stroke-width="5" stroke-linecap="round" stroke-linejoin="round" stroke-miterlimit="10" x1="-1586.188" y1="597.167" x2="-1586.188" y2="658.022"/>
	<g id="Silo_x27_s">
		<g>
			
				<use xlink:href="#Silo_4_"  width="141.202" height="211.152" id="XMLID_1_" x="-70.601" y="-105.576" transform="matrix(1.2273 0 0 -1.2273 -826.5996 221.1914)" overflow="visible"/>
			<text transform="matrix(1 0 0 1 -863.8369 298.4023)" fill="#FFFFFF" font-family="'OpenSans-Semibold'" font-size="130.4734">1</text>
		</g>
		<g id="Silo">
		</g>
		<g>
			
				<use xlink:href="#Silo_4_"  width="141.202" height="211.152" x="-70.601" y="-105.576" transform="matrix(1.2273 0 0 -1.2273 -568.3945 221.1914)" overflow="visible"/>
			<text transform="matrix(1 0 0 1 -605.6328 298.4023)" fill="#FFFFFF" font-family="'OpenSans-Semibold'" font-size="130.4734">2</text>
		</g>
		<g>
			
				<use xlink:href="#Silo_4_"  width="141.202" height="211.152" x="-70.601" y="-105.576" transform="matrix(1.2273 0 0 -1.2273 -310.1904 221.1914)" overflow="visible"/>
			<text transform="matrix(1 0 0 1 -347.4287 298.4023)" fill="#FFFFFF" font-family="'OpenSans-Semibold'" font-size="130.4734">3</text>
		</g>
	</g>
	<g id="Silo_x27_s_1_">
		<g>
			
				<use xlink:href="#Silo_4_"  width="141.202" height="211.152" id="XMLID_2_" x="-70.601" y="-105.576" transform="matrix(1.2273 0 0 -1.2273 -826.6113 574.9146)" overflow="visible"/>
			<text transform="matrix(1 0 0 1 -863.8486 652.1255)" fill="#FFFFFF" font-family="'OpenSans-Semibold'" font-size="130.4734">4</text>
		</g>
		<g id="Silo_1_">
		</g>
		<g>
			
				<use xlink:href="#Silo_4_"  width="141.202" height="211.152" x="-70.601" y="-105.576" transform="matrix(1.2273 0 0 -1.2273 -568.4062 574.9146)" overflow="visible"/>
			<text transform="matrix(1 0 0 1 -605.6445 652.1255)" fill="#FFFFFF" font-family="'OpenSans-Semibold'" font-size="130.4734">5</text>
		</g>
		<g>
			
				<use xlink:href="#Silo_4_"  width="141.202" height="211.152" x="-70.601" y="-105.576" transform="matrix(1.2273 0 0 -1.2273 -310.2021 574.9146)" overflow="visible"/>
			<text transform="matrix(1 0 0 1 -347.4404 652.1255)" fill="#FFFFFF" font-family="'OpenSans-Semibold'" font-size="130.4734">6</text>
		</g>
	</g>
	<g>
		
			<polygon fill="none" stroke="#FFFFFF" stroke-width="5" stroke-linecap="round" stroke-linejoin="round" stroke-miterlimit="10" points="
			262.229,420.647 67.661,375.812 206.362,322.17 400.93,367.004 		"/>
		
			<line fill="none" stroke="#FFFFFF" stroke-width="5" stroke-linecap="round" stroke-linejoin="round" stroke-miterlimit="10" x1="141.634" y1="414.554" x2="141.634" y2="392.831"/>
		
			<line fill="none" stroke="#FFFFFF" stroke-width="5" stroke-linecap="round" stroke-linejoin="round" stroke-miterlimit="10" x1="333.867" y1="411.566" x2="333.867" y2="392.94"/>
		<path fill="none" stroke="#FFFFFF" stroke-width="5" stroke-linecap="round" stroke-linejoin="round" stroke-miterlimit="10" d="
			M333.867,414.583c0,18.715-43.033,33.887-96.116,33.887c-53.085,0-96.117-15.172-96.117-33.887"/>
		
			<line fill="none" stroke="#FFFFFF" stroke-width="5" stroke-linecap="round" stroke-linejoin="round" stroke-miterlimit="10" x1="106.403" y1="385.979" x2="106.403" y2="437.154"/>
		
			<line fill="none" stroke="#FFFFFF" stroke-width="5" stroke-linecap="round" stroke-linejoin="round" stroke-miterlimit="10" x1="106.403" y1="437.154" x2="96.556" y2="448.469"/>
		
			<line fill="none" stroke="#FFFFFF" stroke-width="5" stroke-linecap="round" stroke-linejoin="round" stroke-miterlimit="10" x1="106.403" y1="437.154" x2="106.403" y2="448.469"/>
		
			<line fill="none" stroke="#FFFFFF" stroke-width="5" stroke-linecap="round" stroke-linejoin="round" stroke-miterlimit="10" x1="106.403" y1="437.154" x2="101.479" y2="451.405"/>
		
			<line fill="none" stroke="#FFFFFF" stroke-width="5" stroke-linecap="round" stroke-linejoin="round" stroke-miterlimit="10" x1="106.403" y1="437.154" x2="112.669" y2="451.405"/>
		
			<line fill="none" stroke="#FFFFFF" stroke-width="5" stroke-linecap="round" stroke-linejoin="round" stroke-miterlimit="10" x1="106.403" y1="437.154" x2="117.593" y2="448.469"/>
	</g>
	<g>
		
			<line fill="none" stroke="#FFFFFF" stroke-width="5" stroke-linecap="round" stroke-linejoin="round" stroke-miterlimit="10" x1="514.561" y1="402.528" x2="535.694" y2="341.892"/>
		<path fill="none" stroke="#FFFFFF" stroke-width="5" stroke-linecap="round" stroke-linejoin="round" stroke-miterlimit="10" d="
			M514.798,402.542c-0.354,11.05,9.165,20.692,28.276,25.956c35.559,9.794,90.859,0.723,123.518-20.259
			c19.185-12.325,26.288-26.019,21.678-37.205"/>
		
			<line fill="none" stroke="#FFFFFF" stroke-width="5" stroke-linecap="round" stroke-linejoin="round" stroke-miterlimit="10" x1="689.354" y1="381.114" x2="677.052" y2="324.033"/>
		<path fill="none" stroke="#FFFFFF" stroke-width="5" stroke-linecap="round" stroke-linejoin="round" stroke-miterlimit="10" d="
			M676.268,320.4c-26.479-19.338-58.091-9.202-78.386-6.984c-36.75,4.018-57.293,2.851-62.188,28.475
			c-2.467,12.91,23.354-17.066,74.012-12.202C646.504,333.223,686.881,328.151,676.268,320.4z"/>
		<path fill="none" stroke="#FFFFFF" stroke-width="5" stroke-linecap="round" stroke-linejoin="round" stroke-miterlimit="10" d="
			M526.038,369.597c-7.418,3.667-19.165,8.416-25.487,12.823c-42.777,29.817-40.192,64.502,5.774,77.471
			c45.966,12.968,117.906-0.69,160.683-30.507c33.476-23.333,39.171-49.647,18.041-66.203"/>
		<path fill="none" stroke="#FFFFFF" stroke-width="5" stroke-linecap="round" stroke-linejoin="round" stroke-miterlimit="10" d="
			M540.253,329.866c-0.834,4.371,21.14,5.622,21.14,5.622"/>
		<path fill="none" stroke="#FFFFFF" stroke-width="5" stroke-linecap="round" stroke-linejoin="round" stroke-miterlimit="10" d="
			M638.696,330.791c18.525-4.682,29.366-15.402,29.366-15.402"/>
		<path fill="none" stroke="#FFFFFF" stroke-width="5" stroke-linecap="round" stroke-linejoin="round" stroke-miterlimit="10" d="
			M549.819,430.086c0,0-3.216-16.1-10.131-44.035c62.52-1.958,121.493-27.951,121.493-27.951l10.694,46.48"/>
		
			<text transform="matrix(0.959 -0.2833 0.2833 0.959 569.2686 426.9907)" fill="#FFFFFF" font-family="'OpenSans-Semibold'" font-size="35.8733">Press</text>
	</g>
	<g>
		<path fill-rule="evenodd" clip-rule="evenodd" fill="#FFFFFF" d="M879.184,404.459c-3.642-2.175-6.887-4.747-9.588-7.862
			c3.439-6.658,9.154-14.553,8.246-25.118c-0.507-5.885-3.671-9.486-6.904-13.039c2.048-3.386,4.632-6.235,8.438-7.862
			c2.723,7.568,7.395,13.187,13.422,17.449c-2.033-7.617-4.643-14.659-10.545-18.407c2.297-4.67,6.36-7.573,10.93-9.972
			c-2.961,10.81,2.758,21.213,6.326,29.146c3.846-8.125,9.758-15.951,8.438-27.995c4.195,2.39,7.387,5.781,10.162,9.588
			c-8.707,3.372-10.099,17.494-14.955,24.927c3.537,3.174,7.707,5.716,10.737,9.396c-1.819-6.791-1.788-17.74,0.767-24.353
			c0.93-2.405,3.038-6.634,4.986-6.902c1.267-0.175,3.365,1.418,4.41,2.108c1.525,1.01,2.523,1.903,3.451,3.068
			c-12.021,4.364-10.008,31.75,0.384,36.432c-2.515,3.625-6.883,7.049-10.931,9.779c-0.867-12.234-7.148-19.057-14.956-24.352
			c0.319,5.892-1.537,13.706,0.768,18.216c0.889,1.738,2.2,2.288,3.067,3.835c-5.08,0.562-10.775,0.39-15.531-0.384
			c6.128-3.944,4.998-17.065,4.41-26.461c-4.524-3.593-8.813-7.421-12.847-11.505C886.597,377.74,878.955,390.371,879.184,404.459z"
			/>
		
			<path fill-rule="evenodd" clip-rule="evenodd" fill="none" stroke="#FFFFFF" stroke-width="5" stroke-linecap="round" stroke-linejoin="round" stroke-miterlimit="10" d="
			M837.208,394.211c0.266-46.901,10.333-91.459,71.867-80.83"/>
		<path fill="none" stroke="#FFFFFF" stroke-width="5" stroke-linecap="round" stroke-linejoin="round" stroke-miterlimit="10" d="
			M960.276,415.472c-57.21,11.553-94.16,0.248-123.068-21.261c-27.466,23.837-26.539,50.983,0,61.636
			C901.208,481.536,960.276,415.472,960.276,415.472"/>
		<path fill="none" stroke="#FFFFFF" stroke-width="5" stroke-miterlimit="10" d="M873.142,313.382
			c-11.98,19.934-21.399,56-24.711,88.381"/>
		<path fill="none" stroke="#FFFFFF" stroke-width="5" stroke-miterlimit="10" d="M927.888,316.878
			c20.45,50.521,14.649,101.104,17.853,101.104"/>
		<path fill="none" stroke="#FFFFFF" stroke-width="5" stroke-linecap="round" stroke-linejoin="round" stroke-miterlimit="10" d="
			M960.276,415.472c14.133-13.709,25.169-26.184,22.133-43.227c-4.667-26.196-26.817-54.066-73.334-58.863"/>
	</g>
</g>
</svg>
