<?xml version="1.0" encoding="utf-8"?>
<!-- Generator: Adobe Illustrator 15.1.0, SVG Export Plug-In . SVG Version: 6.00 Build 0)  -->
<!DOCTYPE svg PUBLIC "-//W3C//DTD SVG 1.1//EN" "http://www.w3.org/Graphics/SVG/1.1/DTD/svg11.dtd">
<svg version="1.1" id="Layer_1" xmlns="http://www.w3.org/2000/svg" xmlns:xlink="http://www.w3.org/1999/xlink" x="0px" y="0px"
	 width="1309px" height="1026px" viewBox="0 0 1309 1026" enable-background="new 0 0 1309 1026" xml:space="preserve">
<symbol  id="Bestand" viewBox="-161.682 -207.368 323.363 414.736">
	
		<polygon fill="none" stroke="#FFFFFF" stroke-width="13" stroke-linecap="round" stroke-linejoin="round" stroke-miterlimit="10" points="
		-155.182,200.868 -155.182,-200.868 155.182,-200.868 155.182,66.26 20.574,200.868 	"/>
	
		<polygon fill="none" stroke="#FFFFFF" stroke-width="13" stroke-linecap="round" stroke-linejoin="round" stroke-miterlimit="10" points="
		-155.182,200.868 -155.182,-200.868 155.182,-200.868 155.182,66.26 20.574,200.868 	"/>
	
		<polygon fill="none" stroke="#FFFFFF" stroke-width="13" stroke-linecap="round" stroke-linejoin="round" stroke-miterlimit="10" points="
		155.182,66.26 20.574,200.868 20.574,66.26 	"/>
</symbol>
<g>
	
		<use xlink:href="#Bestand"  width="323.363" height="414.736" id="XMLID_1_" x="-161.682" y="-207.368" transform="matrix(1 0 0 -1 192.0762 252.0771)" overflow="visible"/>
	<text transform="matrix(1 0 0 1 72.1064 420.7803)" fill="#FFFFFF" font-family="'OpenSans-Semibold'" font-size="140">XLS</text>
</g>
<g>
	
		<use xlink:href="#Bestand"  width="323.363" height="414.736" id="XMLID_2_" x="-161.682" y="-207.368" transform="matrix(1 0 0 -1 648.0762 252.0771)" overflow="visible"/>
	<text transform="matrix(1 0 0 1 513.9561 420.7803)" fill="#FFFFFF" font-family="'OpenSans-Semibold'" font-size="140">SHP</text>
</g>
<g>
	
		<use xlink:href="#Bestand"  width="323.363" height="414.736" id="XMLID_3_" x="-161.682" y="-207.368" transform="matrix(1 0 0 -1 1104.0762 252.0771)" overflow="visible"/>
	
		<text transform="matrix(1 0 0 1 966.3926 420.7803)" fill="#FFFFFF" font-family="'OpenSans-Semibold'" font-size="140" letter-spacing="-8">XML</text>
</g>
<g>
	
		<use xlink:href="#Bestand"  width="323.363" height="414.736" id="XMLID_6_" x="-161.682" y="-207.368" transform="matrix(1 0 0 -1 192.0762 784.0771)" overflow="visible"/>
	<text transform="matrix(1 0 0 1 65.6807 952.7803)" fill="#FFFFFF" font-family="'OpenSans-Semibold'" font-size="140">CSV</text>
</g>
<g>
	
		<use xlink:href="#Bestand"  width="323.363" height="414.736" id="XMLID_5_" x="-161.682" y="-207.368" transform="matrix(1 0 0 -1 648.0762 784.0771)" overflow="visible"/>
	<text transform="matrix(1 0 0 1 500.5703 952.7803)" fill="#FFFFFF" font-family="'OpenSans-Semibold'" font-size="154.8399">RDF</text>
</g>
<g>
	
		<use xlink:href="#Bestand"  width="323.363" height="414.736" id="XMLID_4_" x="-161.682" y="-207.368" transform="matrix(1 0 0 -1 1104.0762 784.0771)" overflow="visible"/>
	<text transform="matrix(1 0 0 1 956.7969 952.7803)" fill="#FFFFFF" font-family="'OpenSans-Semibold'" font-size="140">KML</text>
</g>
</svg>
