<?xml version="1.0" encoding="utf-8"?>
<!-- Generator: Adobe Illustrator 15.1.0, SVG Export Plug-In . SVG Version: 6.00 Build 0)  -->
<!DOCTYPE svg PUBLIC "-//W3C//DTD SVG 1.1//EN" "http://www.w3.org/Graphics/SVG/1.1/DTD/svg11.dtd">
<svg version="1.1" xmlns="http://www.w3.org/2000/svg" xmlns:xlink="http://www.w3.org/1999/xlink" x="0px" y="0px" width="793px"
	 height="845px" viewBox="0 0 793 845" enable-background="new 0 0 793 845" xml:space="preserve">
<symbol  id="Silo_4_" viewBox="-76.351 -103.935 141.201 211.152">
	<g>
		<g>
			<g>
				
					<path fill="none" stroke="#FFFFFF" stroke-width="5" stroke-linecap="round" stroke-linejoin="round" stroke-miterlimit="10" d="
					M42.232,94.887c-26.678,13.108-69.793,13.108-96.298-0.001c-26.503-13.109-26.362-34.367,0.313-47.475
					c26.679-13.109,69.795-13.109,96.298,0S68.908,81.776,42.232,94.887"/>
			</g>
		</g>
	</g>
	<g>
		<g>
			<path fill="none" stroke="#FFFFFF" stroke-width="5" stroke-linecap="round" stroke-linejoin="round" stroke-miterlimit="10" d="
				M-73.826,71.148h-0.005V71.03C-73.831,71.07-73.826,71.108-73.826,71.148z"/>
			<path fill="none" stroke="#FFFFFF" stroke-width="5" stroke-linecap="round" stroke-linejoin="round" stroke-miterlimit="10" d="
				M62.336,71.148c0.16-8.657-6.422-17.331-19.774-23.937c-26.503-13.108-69.619-13.108-96.298,0
				c-13.306,6.539-20.006,15.105-20.095,23.676l-0.016-138.75c0.056-8.596,6.759-17.186,20.1-23.74
				c26.677-13.109,69.794-13.109,96.297,0c13.251,6.555,19.843,15.148,19.784,23.74L62.35,71.148H62.336z"/>
		</g>
	</g>
</symbol>
<g id="Background">
	<rect x="-892.426" y="-558" width="793" height="314"/>
	<rect x="-892.426" y="-205.518" width="793" height="314"/>
	<rect y="-912" width="793" height="845"/>
	<rect width="793" height="845"/>
</g>
<g id="Silo_x27_s">
	<g>
		
			<use xlink:href="#Silo_4_"  width="141.201" height="211.152" id="XMLID_1_" x="-76.351" y="-103.935" transform="matrix(1.2273 0 0 -1.2273 -747.478 -46.876)" overflow="visible"/>
		<text transform="matrix(1 0 0 1 -791.7734 28.3203)" fill="#FFFFFF" font-family="'OpenSans-Semibold'" font-size="130.4734">1</text>
	</g>
	<g id="Silo">
	</g>
	<g>
		
			<use xlink:href="#Silo_4_"  width="141.201" height="211.152" id="XMLID_2_" x="-76.351" y="-103.935" transform="matrix(1.2273 0 0 -1.2273 -489.2734 -46.876)" overflow="visible"/>
		<text transform="matrix(1 0 0 1 -533.5684 28.3203)" fill="#FFFFFF" font-family="'OpenSans-Semibold'" font-size="130.4734">2</text>
	</g>
	<g>
		
			<use xlink:href="#Silo_4_"  width="141.201" height="211.152" id="XMLID_3_" x="-76.351" y="-103.935" transform="matrix(1.2273 0 0 -1.2273 -231.0693 -46.876)" overflow="visible"/>
		<text transform="matrix(1 0 0 1 -275.3643 28.3203)" fill="#FFFFFF" font-family="'OpenSans-Semibold'" font-size="130.4734">3</text>
	</g>
</g>
<g id="Satéprikker">
	<g id="Silo_3_">
		<g>
			<g>
				<g>
					
						<path fill="none" stroke="#FFFFFF" stroke-width="4.6132" stroke-linecap="round" stroke-linejoin="round" stroke-miterlimit="10" d="
						M316.173-732.108c3.211-27.236-10.032-64.747-29.578-83.78c-19.545-19.031-37.996-12.38-41.207,14.854
						c-3.211,27.237,10.032,64.748,29.577,83.78C294.511-698.223,312.96-704.874,316.173-732.108"/>
				</g>
			</g>
		</g>
		
			<path fill="none" stroke="#FFFFFF" stroke-width="4.6132" stroke-linecap="round" stroke-linejoin="round" stroke-miterlimit="10" d="
			M259.874-825.789l-0.001-0.004l-0.104,0.036C259.805-825.77,259.839-825.777,259.874-825.789z"/>
		
			<path fill="none" stroke="#FFFFFF" stroke-width="4.6132" stroke-linecap="round" stroke-linejoin="round" stroke-miterlimit="10" d="
			M194.965-802.887l-56.037,19.776c-7.462,2.688-12.876,11.158-14.481,24.778c-3.211,27.235,10.031,64.748,29.577,83.779
			c9.772,9.515,19.273,12.611,26.73,9.921l120.945-42.682l-0.004-0.012c-7.483,2.798-17.051-0.264-26.898-9.852
			c-19.545-19.032-32.788-56.543-29.577-83.78c1.603-13.584,6.997-22.045,14.426-24.754l-54.286,19.158"/>
	</g>
	<g id="Silo_1_">
		<g>
			<g>
				<g>
					
						<path fill="none" stroke="#FFFFFF" stroke-width="4.6132" stroke-linecap="round" stroke-linejoin="round" stroke-miterlimit="10" d="
						M366.441-568.19c6.59-26.621-1.86-65.493-18.874-86.819c-17.014-21.325-36.151-17.032-42.74,9.587
						c-6.591,26.622,1.86,65.495,18.873,86.82C340.714-537.278,359.85-541.571,366.441-568.19"/>
				</g>
			</g>
		</g>
		
			<path fill="none" stroke="#FFFFFF" stroke-width="4.6132" stroke-linecap="round" stroke-linejoin="round" stroke-miterlimit="10" d="
			M322.293-668.173l-0.001-0.004l-0.106,0.023C322.222-668.162,322.257-668.166,322.293-668.173z"/>
		
			<path fill="none" stroke="#FFFFFF" stroke-width="4.6132" stroke-linecap="round" stroke-linejoin="round" stroke-miterlimit="10" d="
			M244.746-651.328l-47.785,10.382c-7.738,1.734-14.169,9.462-17.464,22.774c-6.591,26.62,1.859,65.493,18.873,86.818
			c8.507,10.662,17.547,14.921,25.281,13.184l125.331-27.231l-0.002-0.012c-7.774,1.841-16.884-2.394-25.456-13.137
			c-17.013-21.325-25.464-60.197-18.874-86.819c3.287-13.278,9.697-20.998,17.407-22.757L255.57-653.68"/>
	</g>
	<g id="Silo_2_">
		<g>
			<g>
				<g>
					
						<path fill="none" stroke="#FFFFFF" stroke-width="4.6132" stroke-linecap="round" stroke-linejoin="round" stroke-miterlimit="10" d="
						M418.311-450.346c-6.32-26.686-31.619-57.384-56.506-68.562c-24.885-11.178-39.938,1.396-33.618,28.08
						c6.321,26.688,31.62,57.386,56.506,68.563C409.577-411.087,424.629-423.659,418.311-450.346"/>
				</g>
			</g>
		</g>
		
			<path fill="none" stroke="#FFFFFF" stroke-width="4.6132" stroke-linecap="round" stroke-linejoin="round" stroke-miterlimit="10" d="
			M333.309-519.05l-0.003-0.003l-0.084,0.069C333.25-519.007,333.28-519.026,333.309-519.05z"/>
		
			<path fill="none" stroke="#FFFFFF" stroke-width="4.6132" stroke-linecap="round" stroke-linejoin="round" stroke-miterlimit="10" d="
			M297.797-489.796l-63.476,52.3c-6.087,5.084-8.271,14.896-5.108,28.241c6.319,26.687,31.619,57.386,56.504,68.563
			c12.442,5.588,22.43,5.239,28.513,0.155l98.984-81.557l-0.009-0.01c-6.069,5.194-16.107,5.597-28.646-0.034
			c-24.885-11.178-50.184-41.877-56.505-68.563c-3.152-13.311-0.984-23.107,5.065-28.2l-26.199,21.587"/>
	</g>
	<circle fill="none" stroke="#FFFFFF" stroke-width="5" stroke-miterlimit="10" cx="178.626" cy="-869.936" r="17.667"/>
	
		<text transform="matrix(0.2124 0.9772 -0.9772 0.2124 210.3027 -608.1963)" fill="#FFFFFF" font-family="'OpenSans-Semibold'" font-size="98.0829">2</text>
	
		<text transform="matrix(0.636 0.7717 -0.7717 0.636 261.168 -414.4824)" fill="#FFFFFF" font-family="'OpenSans-Semibold'" font-size="98.0829">3</text>
	
		<text transform="matrix(0.3329 0.943 -0.943 0.3329 156.2617 -752.2876)" fill="#FFFFFF" font-family="'OpenSans-Semibold'" font-size="98.083">1</text>
	<g>
		
			<rect x="474.309" y="-130.317" fill="none" stroke="#FFFFFF" stroke-width="5" stroke-linecap="round" stroke-linejoin="round" stroke-miterlimit="10" width="29" height="35.75"/>
		
			<rect x="270.809" y="-130.317" fill="none" stroke="#FFFFFF" stroke-width="5" stroke-linecap="round" stroke-linejoin="round" stroke-miterlimit="10" width="29" height="35.75"/>
		
			<rect x="372.559" y="-130.317" fill="none" stroke="#FFFFFF" stroke-width="5" stroke-linecap="round" stroke-linejoin="round" stroke-miterlimit="10" width="29" height="35.75"/>
		
			<polygon fill="none" stroke="#FFFFFF" stroke-width="5" stroke-linecap="round" stroke-linejoin="round" stroke-miterlimit="10" points="
			67.309,-125.792 67.309,-94.567 96.309,-94.567 96.309,-119.23 		"/>
		
			<rect x="205.309" y="-153.317" fill="none" stroke="#FFFFFF" stroke-width="5" stroke-linecap="round" stroke-linejoin="round" stroke-miterlimit="10" width="315" height="23"/>
		
			<rect x="205.309" y="-189.067" fill="none" stroke="#FFFFFF" stroke-width="5" stroke-linecap="round" stroke-linejoin="round" stroke-miterlimit="10" width="315" height="23"/>
		
			<polygon fill="none" stroke="#FFFFFF" stroke-width="5" stroke-linecap="round" stroke-linejoin="round" stroke-miterlimit="10" points="
			47.309,-237.567 205.309,-201.817 205.309,-224.817 47.309,-260.567 		"/>
		
			<rect x="436.14" y="-287.236" fill="none" stroke="#FFFFFF" stroke-width="5" stroke-linecap="round" stroke-linejoin="round" stroke-miterlimit="10" width="75.366" height="76.338"/>
		<text transform="matrix(1 0 0 1 447.751 -218.6201)" fill="#FFFFFF" font-family="'OpenSans-Semibold'" font-size="83.1733">P</text>
		
			<line fill="none" stroke="#FFFFFF" stroke-width="5" stroke-linecap="round" stroke-linejoin="round" stroke-miterlimit="10" x1="13.309" y1="-94.567" x2="753.309" y2="-94.567"/>
		<g>
			
				<rect x="447.309" y="-351.25" fill="none" stroke="#FFFFFF" stroke-width="5" stroke-linecap="round" stroke-linejoin="round" stroke-miterlimit="10" width="34.5" height="20.933"/>
			
				<line fill="none" stroke="#FFFFFF" stroke-width="5" stroke-linecap="round" stroke-linejoin="round" stroke-miterlimit="10" x1="447.309" y1="-330.317" x2="447.309" y2="-296.317"/>
			
				<rect x="500.809" y="-351.25" fill="none" stroke="#FFFFFF" stroke-width="5" stroke-linecap="round" stroke-linejoin="round" stroke-miterlimit="10" width="34.5" height="20.933"/>
			
				<line fill="none" stroke="#FFFFFF" stroke-width="5" stroke-linecap="round" stroke-linejoin="round" stroke-miterlimit="10" x1="500.809" y1="-330.317" x2="500.809" y2="-296.317"/>
			
				<rect x="446.309" y="-351.25" fill="none" stroke="#FFFFFF" stroke-width="5" stroke-linecap="round" stroke-linejoin="round" stroke-miterlimit="10" width="34.5" height="20.933"/>
			
				<line fill="none" stroke="#FFFFFF" stroke-width="5" stroke-linecap="round" stroke-linejoin="round" stroke-miterlimit="10" x1="446.309" y1="-330.317" x2="446.309" y2="-296.317"/>
			
				<rect x="499.809" y="-351.25" fill="none" stroke="#FFFFFF" stroke-width="5" stroke-linecap="round" stroke-linejoin="round" stroke-miterlimit="10" width="34.5" height="20.933"/>
			
				<line fill="none" stroke="#FFFFFF" stroke-width="5" stroke-linecap="round" stroke-linejoin="round" stroke-miterlimit="10" x1="499.809" y1="-330.317" x2="499.809" y2="-296.317"/>
		</g>
		<path fill="none" stroke="#FFFFFF" stroke-width="5" stroke-linecap="round" stroke-linejoin="round" stroke-miterlimit="10" d="
			M624.287-185.857c4.16-2.852,6.893-7.637,6.893-13.062c0-6.816-4.316-12.609-10.359-14.839
			c-0.068-8.468-6.948-15.312-15.433-15.312c-4.858,0-9.187,2.248-12.017,5.756c-2.821-1.938-6.22-3.092-9.901-3.092
			c-9.714,0-17.589,7.875-17.589,17.589c0,1.399,0.181,2.755,0.49,4.06c-6.574,0.316-11.811,5.73-11.811,12.383
			c0,5.977,4.225,10.963,9.849,12.146c-2.741,2.276-4.488,5.709-4.488,9.55c0,6.854,5.557,12.41,12.41,12.41
			c0.014,0,0.026-0.002,0.04-0.002c-0.019,0.26-0.04,0.52-0.04,0.784c0,6.152,4.987,11.14,11.14,11.14
			c4.214,0,7.88-2.342,9.772-5.793c2.636,3.892,7.092,6.449,12.146,6.449c8.095,0,14.657-6.562,14.657-14.657
			c0-1.298-0.186-2.549-0.502-3.747c0.729,0.15,1.482,0.229,2.255,0.229c6.152,0,11.14-4.986,11.14-11.139
			C632.938-180.303,629.24-184.726,624.287-185.857z"/>
		<path fill="none" stroke="#FFFFFF" stroke-width="5" stroke-linecap="round" stroke-linejoin="round" stroke-miterlimit="10" d="
			M673.747-164.71c-4.959,0.925-10.273-0.526-14.11-4.362c-4.819-4.82-5.863-11.969-3.167-17.818
			c-5.939-6.035-5.914-15.74,0.085-21.74c3.436-3.435,8.086-4.906,12.566-4.427c0.626-3.364,2.212-6.584,4.815-9.188
			c6.868-6.868,18.006-6.868,24.875,0.001c0.989,0.989,1.819,2.074,2.523,3.217c4.873-4.425,12.404-4.299,17.107,0.404
			c4.227,4.227,4.765,10.74,1.624,15.553c3.548-0.33,7.211,0.863,9.927,3.579c4.847,4.847,4.847,12.704,0,17.55
			c-0.01,0.01-0.02,0.018-0.029,0.027c0.196,0.171,0.396,0.339,0.582,0.525c4.351,4.352,4.351,11.404,0,15.754
			c-2.979,2.98-7.228,3.917-11.006,2.814c0.888,4.615-0.454,9.575-4.028,13.148c-5.724,5.725-15.004,5.725-20.729,0
			c-0.917-0.917-1.671-1.934-2.295-3.004c-0.409,0.621-0.886,1.209-1.432,1.756c-4.351,4.351-11.404,4.351-15.754,0
			C671.558-154.664,671.045-160.407,673.747-164.71z"/>
		<path fill="none" stroke="#FFFFFF" stroke-width="5" stroke-linecap="round" stroke-linejoin="round" stroke-miterlimit="10" d="
			M593.243-152.141c-1.19,2.17-3.083,3.899-5.371,4.886l-1.823,52.688h16.678l-1.342-51.685
			C598.025-147.204,595.154-149.318,593.243-152.141z"/>
		<path fill="none" stroke="#FFFFFF" stroke-width="5" stroke-linecap="round" stroke-linejoin="round" stroke-miterlimit="10" d="
			M694.783-149.672c-0.917-0.917-1.671-1.934-2.295-3.004c-0.409,0.621-0.886,1.209-1.432,1.756
			c-0.791,0.791-1.673,1.434-2.609,1.938l-1.884,54.415h16.678l-1.328-51.186C699.301-146.342,696.816-147.639,694.783-149.672z"/>
		
			<polygon fill="none" stroke="#FFFFFF" stroke-width="5" stroke-linecap="round" stroke-linejoin="round" stroke-miterlimit="10" points="
			511.506,-224.817 511.506,-210.898 435.168,-210.898 435.168,-224.817 205.309,-224.817 205.309,-201.817 520.309,-201.817 
			520.309,-224.817 		"/>
		
			<polygon fill="none" stroke="#FFFFFF" stroke-width="5" stroke-linecap="round" stroke-linejoin="round" stroke-miterlimit="10" points="
			47.309,-296.317 148.959,-273.317 435.168,-273.317 435.168,-287.236 511.506,-287.236 511.506,-273.317 520.309,-273.317 
			520.309,-296.317 		"/>
		
			<rect x="205.309" y="-260.567" fill="none" stroke="#FFFFFF" stroke-width="5" stroke-linecap="round" stroke-linejoin="round" stroke-miterlimit="10" width="230.831" height="23"/>
		
			<rect x="511.506" y="-260.567" fill="none" stroke="#FFFFFF" stroke-width="5" stroke-linecap="round" stroke-linejoin="round" stroke-miterlimit="10" width="8.803" height="23"/>
		
			<polygon fill="none" stroke="#FFFFFF" stroke-width="5" stroke-linecap="round" stroke-linejoin="round" stroke-miterlimit="10" points="
			47.309,-273.317 205.309,-237.567 205.309,-260.567 47.309,-296.317 		"/>
		
			<polygon fill="none" stroke="#FFFFFF" stroke-width="5" stroke-linecap="round" stroke-linejoin="round" stroke-miterlimit="10" points="
			205.309,-237.567 103.658,-260.567 47.309,-260.567 148.959,-237.567 		"/>
		
			<polygon fill="none" stroke="#FFFFFF" stroke-width="5" stroke-linecap="round" stroke-linejoin="round" stroke-miterlimit="10" points="
			47.309,-130.317 205.309,-94.567 205.309,-117.567 47.309,-153.317 		"/>
		
			<polygon fill="none" stroke="#FFFFFF" stroke-width="5" stroke-linecap="round" stroke-linejoin="round" stroke-miterlimit="10" points="
			47.309,-166.067 205.309,-130.317 205.309,-153.317 47.309,-189.067 		"/>
		
			<polygon fill="none" stroke="#FFFFFF" stroke-width="5" stroke-linecap="round" stroke-linejoin="round" stroke-miterlimit="10" points="
			205.309,-201.817 103.658,-224.817 47.309,-224.817 148.959,-201.817 		"/>
		
			<polygon fill="none" stroke="#FFFFFF" stroke-width="5" stroke-linecap="round" stroke-linejoin="round" stroke-miterlimit="10" points="
			47.309,-201.817 205.309,-166.067 205.309,-189.067 47.309,-224.817 		"/>
		
			<polygon fill="none" stroke="#FFFFFF" stroke-width="5" stroke-linecap="round" stroke-linejoin="round" stroke-miterlimit="10" points="
			205.309,-166.067 103.658,-189.067 47.309,-189.067 148.959,-166.067 		"/>
		
			<polygon fill="none" stroke="#FFFFFF" stroke-width="5" stroke-linecap="round" stroke-linejoin="round" stroke-miterlimit="10" points="
			205.309,-130.317 103.658,-153.317 47.309,-153.317 148.959,-130.317 		"/>
	</g>
	<path fill="#55B948" stroke="#FFFFFF" stroke-width="5" stroke-miterlimit="10" d="M404.132-166.063
		c1.054,3.181,2.521,7.606,4.224,12.747"/>
	
		<line fill="#55B948" stroke="#FFFFFF" stroke-width="5" stroke-miterlimit="10" x1="392.372" y1="-201.82" x2="396.562" y2="-189.063"/>
	
		<line fill="#55B948" stroke="#FFFFFF" stroke-width="5" stroke-miterlimit="10" x1="380.633" y1="-237.565" x2="384.821" y2="-224.812"/>
	
		<line fill="#55B948" stroke="#FFFFFF" stroke-width="5" stroke-miterlimit="10" x1="368.891" y1="-273.317" x2="373.079" y2="-260.564"/>
	
		<line fill="#55B948" stroke="#FFFFFF" stroke-width="5" stroke-miterlimit="10" x1="339.875" y1="-361.666" x2="361.338" y2="-296.314"/>
	
		<line fill="#55B948" stroke="#FFFFFF" stroke-width="5" stroke-miterlimit="10" x1="373.104" y1="-296.32" x2="349.119" y2="-369.284"/>
	
		<line fill="#55B948" stroke="#FFFFFF" stroke-width="5" stroke-miterlimit="10" x1="384.856" y1="-260.57" x2="380.667" y2="-273.312"/>
	
		<line fill="#55B948" stroke="#FFFFFF" stroke-width="5" stroke-miterlimit="10" x1="396.608" y1="-224.819" x2="392.418" y2="-237.568"/>
	
		<line fill="#55B948" stroke="#FFFFFF" stroke-width="5" stroke-miterlimit="10" x1="408.358" y1="-189.072" x2="404.169" y2="-201.819"/>
	
		<line fill="#55B948" stroke="#FFFFFF" stroke-width="5" stroke-miterlimit="10" x1="420.111" y1="-153.316" x2="415.922" y2="-166.062"/>
	<path fill="none" stroke="#FFFFFF" stroke-width="5" stroke-miterlimit="10" d="M415.979-130.316
		c4.608,13.904,9.244,27.893,11.848,35.747l11.597,0.003l-11.754-35.758"/>
	<path fill="none" stroke="#FFFFFF" stroke-width="5" stroke-miterlimit="10" d="M197.648-794.72
		c1.324,3.997,2.123,6.405,2.123,6.405c0.761,2.315,2.912,3.784,5.224,3.784c0.569,0,1.148-0.09,1.719-0.277
		c2.886-0.948,4.456-4.057,3.507-6.942l-0.976-2.967l-20.052-61.085c-2.919,2.187-6.526,3.5-10.448,3.527L197.648-794.72z"/>
	<path fill="none" stroke="#FFFFFF" stroke-width="5" stroke-miterlimit="10" d="M284.161-531.312l18.1,55.417l-0.323-0.975
		c1.324,3.997,2.123,6.405,2.123,6.405c0.761,2.315,2.912,3.784,5.224,3.784c0.569,0,1.148-0.09,1.719-0.277
		c2.886-0.948,4.456-4.057,3.507-6.942l-0.976-2.967l-18.55-56.796"/>
	<path fill="none" stroke="#FFFFFF" stroke-width="5" stroke-miterlimit="10" d="M234.181-683.491l14.365,43.73
		c1.324,3.997,2.123,6.405,2.123,6.405c0.761,2.315,2.912,3.784,5.224,3.784c0.569,0,1.148-0.09,1.719-0.277
		c2.886-0.948,4.456-4.057,3.507-6.942l-0.976-2.967l-15.567-47.401"/>
</g>
<g id="Rules">
	<g>
		
			<rect x="487.309" y="781.683" fill="none" stroke="#FFFFFF" stroke-width="5" stroke-linecap="round" stroke-linejoin="round" stroke-miterlimit="10" width="29" height="35.75"/>
		
			<rect x="283.809" y="781.683" fill="none" stroke="#FFFFFF" stroke-width="5" stroke-linecap="round" stroke-linejoin="round" stroke-miterlimit="10" width="29" height="35.75"/>
		
			<rect x="385.559" y="781.683" fill="none" stroke="#FFFFFF" stroke-width="5" stroke-linecap="round" stroke-linejoin="round" stroke-miterlimit="10" width="29" height="35.75"/>
		
			<polygon fill="none" stroke="#FFFFFF" stroke-width="5" stroke-linecap="round" stroke-linejoin="round" stroke-miterlimit="10" points="
			80.309,786.208 80.309,817.433 109.309,817.433 109.309,792.77 		"/>
		
			<rect x="218.309" y="758.683" fill="none" stroke="#FFFFFF" stroke-width="5" stroke-linecap="round" stroke-linejoin="round" stroke-miterlimit="10" width="315" height="23"/>
		
			<rect x="218.309" y="722.933" fill="none" stroke="#FFFFFF" stroke-width="5" stroke-linecap="round" stroke-linejoin="round" stroke-miterlimit="10" width="315" height="23"/>
		
			<polygon fill="none" stroke="#FFFFFF" stroke-width="5" stroke-linecap="round" stroke-linejoin="round" stroke-miterlimit="10" points="
			60.309,674.433 218.309,710.183 218.309,687.183 60.309,651.433 		"/>
		
			<rect x="449.14" y="624.764" fill="none" stroke="#FFFFFF" stroke-width="5" stroke-linecap="round" stroke-linejoin="round" stroke-miterlimit="10" width="75.366" height="76.338"/>
		<text transform="matrix(1 0 0 1 460.751 693.3799)" fill="#FFFFFF" font-family="'OpenSans-Semibold'" font-size="83.1733">P</text>
		
			<line fill="none" stroke="#FFFFFF" stroke-width="5" stroke-linecap="round" stroke-linejoin="round" stroke-miterlimit="10" x1="26.309" y1="817.433" x2="766.309" y2="817.433"/>
		<g>
			
				<rect x="460.309" y="560.75" fill="none" stroke="#FFFFFF" stroke-width="5" stroke-linecap="round" stroke-linejoin="round" stroke-miterlimit="10" width="34.5" height="20.933"/>
			
				<line fill="none" stroke="#FFFFFF" stroke-width="5" stroke-linecap="round" stroke-linejoin="round" stroke-miterlimit="10" x1="460.309" y1="581.683" x2="460.309" y2="615.683"/>
			
				<rect x="513.809" y="560.75" fill="none" stroke="#FFFFFF" stroke-width="5" stroke-linecap="round" stroke-linejoin="round" stroke-miterlimit="10" width="34.5" height="20.933"/>
			
				<line fill="none" stroke="#FFFFFF" stroke-width="5" stroke-linecap="round" stroke-linejoin="round" stroke-miterlimit="10" x1="513.809" y1="581.683" x2="513.809" y2="615.683"/>
			
				<rect x="459.309" y="560.75" fill="none" stroke="#FFFFFF" stroke-width="5" stroke-linecap="round" stroke-linejoin="round" stroke-miterlimit="10" width="34.5" height="20.933"/>
			
				<line fill="none" stroke="#FFFFFF" stroke-width="5" stroke-linecap="round" stroke-linejoin="round" stroke-miterlimit="10" x1="459.309" y1="581.683" x2="459.309" y2="615.683"/>
			
				<rect x="512.809" y="560.75" fill="none" stroke="#FFFFFF" stroke-width="5" stroke-linecap="round" stroke-linejoin="round" stroke-miterlimit="10" width="34.5" height="20.933"/>
			
				<line fill="none" stroke="#FFFFFF" stroke-width="5" stroke-linecap="round" stroke-linejoin="round" stroke-miterlimit="10" x1="512.809" y1="581.683" x2="512.809" y2="615.683"/>
		</g>
		<path fill="none" stroke="#FFFFFF" stroke-width="5" stroke-linecap="round" stroke-linejoin="round" stroke-miterlimit="10" d="
			M637.287,726.143c4.16-2.852,6.893-7.637,6.893-13.062c0-6.816-4.316-12.609-10.359-14.839
			c-0.068-8.468-6.948-15.312-15.433-15.312c-4.858,0-9.187,2.248-12.017,5.756c-2.821-1.938-6.22-3.092-9.901-3.092
			c-9.714,0-17.589,7.875-17.589,17.589c0,1.399,0.181,2.755,0.49,4.06c-6.574,0.316-11.811,5.73-11.811,12.383
			c0,5.977,4.225,10.963,9.849,12.146c-2.741,2.276-4.488,5.709-4.488,9.55c0,6.854,5.557,12.41,12.41,12.41
			c0.014,0,0.026-0.002,0.04-0.002c-0.019,0.26-0.04,0.52-0.04,0.784c0,6.152,4.987,11.14,11.14,11.14
			c4.214,0,7.88-2.342,9.772-5.793c2.636,3.892,7.092,6.449,12.146,6.449c8.095,0,14.657-6.562,14.657-14.657
			c0-1.298-0.186-2.549-0.502-3.747c0.729,0.15,1.482,0.229,2.255,0.229c6.152,0,11.14-4.986,11.14-11.139
			C645.938,731.697,642.24,727.274,637.287,726.143z"/>
		<path fill="none" stroke="#FFFFFF" stroke-width="5" stroke-linecap="round" stroke-linejoin="round" stroke-miterlimit="10" d="
			M686.747,747.29c-4.959,0.925-10.273-0.526-14.11-4.362c-4.819-4.82-5.863-11.969-3.167-17.818
			c-5.939-6.035-5.914-15.74,0.085-21.74c3.436-3.435,8.086-4.906,12.566-4.427c0.626-3.364,2.212-6.584,4.815-9.188
			c6.868-6.868,18.006-6.868,24.875,0.001c0.989,0.989,1.819,2.074,2.523,3.217c4.873-4.425,12.404-4.299,17.107,0.404
			c4.227,4.227,4.765,10.74,1.624,15.553c3.548-0.33,7.211,0.863,9.927,3.579c4.847,4.847,4.847,12.704,0,17.55
			c-0.01,0.01-0.02,0.018-0.029,0.027c0.196,0.171,0.396,0.339,0.582,0.525c4.351,4.352,4.351,11.404,0,15.754
			c-2.979,2.98-7.228,3.917-11.006,2.814c0.888,4.615-0.454,9.575-4.028,13.148c-5.724,5.725-15.004,5.725-20.729,0
			c-0.917-0.917-1.671-1.934-2.295-3.004c-0.409,0.621-0.886,1.209-1.432,1.756c-4.351,4.351-11.404,4.351-15.754,0
			C684.558,757.336,684.045,751.593,686.747,747.29z"/>
		<path fill="none" stroke="#FFFFFF" stroke-width="5" stroke-linecap="round" stroke-linejoin="round" stroke-miterlimit="10" d="
			M606.243,759.859c-1.19,2.17-3.083,3.899-5.371,4.886l-1.823,52.688h16.678l-1.342-51.685
			C611.025,764.796,608.154,762.682,606.243,759.859z"/>
		<path fill="none" stroke="#FFFFFF" stroke-width="5" stroke-linecap="round" stroke-linejoin="round" stroke-miterlimit="10" d="
			M707.783,762.328c-0.917-0.917-1.671-1.934-2.295-3.004c-0.409,0.621-0.886,1.209-1.432,1.756
			c-0.791,0.791-1.673,1.434-2.609,1.938l-1.884,54.415h16.678l-1.328-51.186C712.301,765.658,709.816,764.361,707.783,762.328z"/>
		
			<polygon fill="none" stroke="#FFFFFF" stroke-width="5" stroke-linecap="round" stroke-linejoin="round" stroke-miterlimit="10" points="
			524.506,687.183 524.506,701.102 448.168,701.102 448.168,687.183 218.309,687.183 218.309,710.183 533.309,710.183 
			533.309,687.183 		"/>
		
			<polygon fill="none" stroke="#FFFFFF" stroke-width="5" stroke-linecap="round" stroke-linejoin="round" stroke-miterlimit="10" points="
			60.309,615.683 161.959,638.683 448.168,638.683 448.168,624.764 524.506,624.764 524.506,638.683 533.309,638.683 
			533.309,615.683 		"/>
		
			<rect x="218.309" y="651.433" fill="none" stroke="#FFFFFF" stroke-width="5" stroke-linecap="round" stroke-linejoin="round" stroke-miterlimit="10" width="230.831" height="23"/>
		
			<rect x="524.506" y="651.433" fill="none" stroke="#FFFFFF" stroke-width="5" stroke-linecap="round" stroke-linejoin="round" stroke-miterlimit="10" width="8.803" height="23"/>
		
			<polygon fill="none" stroke="#FFFFFF" stroke-width="5" stroke-linecap="round" stroke-linejoin="round" stroke-miterlimit="10" points="
			60.309,638.683 218.309,674.433 218.309,651.433 60.309,615.683 		"/>
		
			<polygon fill="none" stroke="#FFFFFF" stroke-width="5" stroke-linecap="round" stroke-linejoin="round" stroke-miterlimit="10" points="
			218.309,674.433 116.658,651.433 60.309,651.433 161.959,674.433 		"/>
		
			<polygon fill="none" stroke="#FFFFFF" stroke-width="5" stroke-linecap="round" stroke-linejoin="round" stroke-miterlimit="10" points="
			60.309,781.683 218.309,817.433 218.309,794.433 60.309,758.683 		"/>
		
			<polygon fill="none" stroke="#FFFFFF" stroke-width="5" stroke-linecap="round" stroke-linejoin="round" stroke-miterlimit="10" points="
			60.309,745.933 218.309,781.683 218.309,758.683 60.309,722.933 		"/>
		
			<polygon fill="none" stroke="#FFFFFF" stroke-width="5" stroke-linecap="round" stroke-linejoin="round" stroke-miterlimit="10" points="
			218.309,710.183 116.658,687.183 60.309,687.183 161.959,710.183 		"/>
		
			<polygon fill="none" stroke="#FFFFFF" stroke-width="5" stroke-linecap="round" stroke-linejoin="round" stroke-miterlimit="10" points="
			60.309,710.183 218.309,745.933 218.309,722.933 60.309,687.183 		"/>
		
			<polygon fill="none" stroke="#FFFFFF" stroke-width="5" stroke-linecap="round" stroke-linejoin="round" stroke-miterlimit="10" points="
			218.309,745.933 116.658,722.933 60.309,722.933 161.959,745.933 		"/>
		
			<polygon fill="none" stroke="#FFFFFF" stroke-width="5" stroke-linecap="round" stroke-linejoin="round" stroke-miterlimit="10" points="
			218.309,781.683 116.658,758.683 60.309,758.683 161.959,781.683 		"/>
	</g>
	<g>
		
			<use xlink:href="#Silo_4_"  width="141.201" height="211.152" id="XMLID_5_" x="-76.351" y="-103.935" transform="matrix(1.2273 0 0 -1.2273 157.0156 319.1074)" overflow="visible"/>
		<text transform="matrix(1 0 0 1 112.7207 394.3037)" fill="#FFFFFF" font-family="'OpenSans-Semibold'" font-size="130.4734">1</text>
	</g>
	<g>
		
			<use xlink:href="#Silo_4_"  width="141.201" height="211.152" id="XMLID_4_" x="-76.351" y="-103.935" transform="matrix(1.2273 0 0 -1.2273 639.7842 319.1074)" overflow="visible"/>
		<text transform="matrix(1 0 0 1 595.4893 394.3037)" fill="#FFFFFF" font-family="'OpenSans-Semibold'" font-size="130.4734">2</text>
	</g>
	<line fill="none" stroke="#FFFFFF" stroke-width="5" stroke-miterlimit="10" x1="257.625" y1="324.54" x2="520.309" y2="324.54"/>
	
		<polyline fill="none" stroke="#FFFFFF" stroke-width="5" stroke-linecap="round" stroke-linejoin="round" stroke-miterlimit="10" points="
		278.902,341.15 257.625,324.54 278.902,307.93 	"/>
	
		<polyline fill="none" stroke="#FFFFFF" stroke-width="5" stroke-linecap="round" stroke-linejoin="round" stroke-miterlimit="10" points="
		499.031,307.93 520.309,324.54 499.031,341.15 	"/>
	<text transform="matrix(1 0 0 1 293.8369 299.1387)" fill="#FFFFFF" font-family="'OpenSans-Semibold'" font-size="36.3128">R</text>
	
		<text transform="matrix(0.583 0 0 0.583 317.0469 287.0469)" fill="#FFFFFF" font-family="'OpenSans-Semibold'" font-size="36.3128">1</text>
	<text transform="matrix(1 0 0 1 329.1309 299.1387)" fill="#FFFFFF" font-family="'OpenSans-Semibold'" font-size="36.3128">, R</text>
	
		<text transform="matrix(0.583 0 0 0.583 371.4717 287.0469)" fill="#FFFFFF" font-family="'OpenSans-Semibold'" font-size="36.3128">2</text>
	<text transform="matrix(1 0 0 1 383.5557 299.1387)" fill="#FFFFFF" font-family="'OpenSans-Semibold'" font-size="36.3128">, R</text>
	
		<text transform="matrix(0.583 0 0 0.583 425.8975 287.0469)" fill="#FFFFFF" font-family="'OpenSans-Semibold'" font-size="36.3128">3</text>
	<text transform="matrix(1 0 0 1 437.9814 299.1387)" fill="#FFFFFF" font-family="'OpenSans-Semibold'" font-size="36.3128">, R</text>
	
		<text transform="matrix(0.583 0 0 0.583 480.3223 287.0469)" fill="#FFFFFF" font-family="'OpenSans-Semibold'" font-size="36.3128">x</text>
</g>
<g id="Zwarte_garage">
	<g>
		
			<rect x="-404.426" y="-308.409" fill="none" stroke="#FFFFFF" stroke-width="5" stroke-linecap="round" stroke-linejoin="round" stroke-miterlimit="10" width="29" height="35.75"/>
		
			<rect x="-607.926" y="-308.409" fill="none" stroke="#FFFFFF" stroke-width="5" stroke-linecap="round" stroke-linejoin="round" stroke-miterlimit="10" width="29" height="35.75"/>
		
			<rect x="-506.176" y="-308.409" fill="none" stroke="#FFFFFF" stroke-width="5" stroke-linecap="round" stroke-linejoin="round" stroke-miterlimit="10" width="29" height="35.75"/>
		
			<polygon fill="none" stroke="#FFFFFF" stroke-width="5" stroke-linecap="round" stroke-linejoin="round" stroke-miterlimit="10" points="
			-811.426,-303.884 -811.426,-272.659 -782.426,-272.659 -782.426,-297.322 		"/>
		
			<rect x="-673.426" y="-331.409" fill="none" stroke="#FFFFFF" stroke-width="5" stroke-linecap="round" stroke-linejoin="round" stroke-miterlimit="10" width="315" height="23"/>
		
			<rect x="-673.426" y="-367.159" fill="none" stroke="#FFFFFF" stroke-width="5" stroke-linecap="round" stroke-linejoin="round" stroke-miterlimit="10" width="315" height="23"/>
		
			<polygon fill="none" stroke="#FFFFFF" stroke-width="5" stroke-linecap="round" stroke-linejoin="round" stroke-miterlimit="10" points="
			-831.426,-415.659 -673.426,-379.909 -673.426,-402.909 -831.426,-438.659 		"/>
		
			<rect x="-442.595" y="-465.328" fill="none" stroke="#FFFFFF" stroke-width="5" stroke-linecap="round" stroke-linejoin="round" stroke-miterlimit="10" width="75.366" height="76.338"/>
		<text transform="matrix(1 0 0 1 -430.9834 -396.7119)" fill="#FFFFFF" font-family="'OpenSans-Semibold'" font-size="83.1733">P</text>
		
			<line fill="none" stroke="#FFFFFF" stroke-width="5" stroke-linecap="round" stroke-linejoin="round" stroke-miterlimit="10" x1="-865.426" y1="-272.659" x2="-125.426" y2="-272.659"/>
		<g>
			
				<rect x="-431.426" y="-529.342" fill="none" stroke="#FFFFFF" stroke-width="5" stroke-linecap="round" stroke-linejoin="round" stroke-miterlimit="10" width="34.5" height="20.933"/>
			
				<line fill="none" stroke="#FFFFFF" stroke-width="5" stroke-linecap="round" stroke-linejoin="round" stroke-miterlimit="10" x1="-431.426" y1="-508.409" x2="-431.426" y2="-474.409"/>
			
				<rect x="-377.926" y="-529.342" fill="none" stroke="#FFFFFF" stroke-width="5" stroke-linecap="round" stroke-linejoin="round" stroke-miterlimit="10" width="34.5" height="20.933"/>
			
				<line fill="none" stroke="#FFFFFF" stroke-width="5" stroke-linecap="round" stroke-linejoin="round" stroke-miterlimit="10" x1="-377.926" y1="-508.409" x2="-377.926" y2="-474.409"/>
			
				<rect x="-432.426" y="-529.342" fill="none" stroke="#FFFFFF" stroke-width="5" stroke-linecap="round" stroke-linejoin="round" stroke-miterlimit="10" width="34.5" height="20.933"/>
			
				<line fill="none" stroke="#FFFFFF" stroke-width="5" stroke-linecap="round" stroke-linejoin="round" stroke-miterlimit="10" x1="-432.426" y1="-508.409" x2="-432.426" y2="-474.409"/>
			
				<rect x="-378.926" y="-529.342" fill="none" stroke="#FFFFFF" stroke-width="5" stroke-linecap="round" stroke-linejoin="round" stroke-miterlimit="10" width="34.5" height="20.933"/>
			
				<line fill="none" stroke="#FFFFFF" stroke-width="5" stroke-linecap="round" stroke-linejoin="round" stroke-miterlimit="10" x1="-378.926" y1="-508.409" x2="-378.926" y2="-474.409"/>
		</g>
		<path fill="none" stroke="#FFFFFF" stroke-width="5" stroke-linecap="round" stroke-linejoin="round" stroke-miterlimit="10" d="
			M-254.447-363.949c4.16-2.852,6.893-7.637,6.893-13.062c0-6.816-4.316-12.609-10.359-14.839
			c-0.068-8.468-6.948-15.312-15.433-15.312c-4.858,0-9.187,2.248-12.017,5.756c-2.821-1.938-6.22-3.092-9.901-3.092
			c-9.714,0-17.589,7.875-17.589,17.589c0,1.399,0.181,2.755,0.49,4.06c-6.574,0.316-11.811,5.73-11.811,12.383
			c0,5.977,4.225,10.963,9.849,12.146c-2.741,2.276-4.488,5.709-4.488,9.55c0,6.854,5.557,12.41,12.41,12.41
			c0.014,0,0.026-0.002,0.04-0.002c-0.019,0.26-0.04,0.52-0.04,0.784c0,6.152,4.987,11.14,11.14,11.14
			c4.214,0,7.88-2.342,9.772-5.793c2.636,3.892,7.092,6.449,12.146,6.449c8.095,0,14.657-6.562,14.657-14.657
			c0-1.298-0.186-2.549-0.502-3.747c0.729,0.15,1.482,0.229,2.255,0.229c6.152,0,11.14-4.986,11.14-11.139
			C-245.796-358.395-249.494-362.817-254.447-363.949z"/>
		<path fill="none" stroke="#FFFFFF" stroke-width="5" stroke-linecap="round" stroke-linejoin="round" stroke-miterlimit="10" d="
			M-204.987-342.802c-4.959,0.925-10.273-0.526-14.11-4.362c-4.819-4.82-5.863-11.969-3.167-17.818
			c-5.939-6.035-5.914-15.74,0.085-21.74c3.436-3.435,8.086-4.906,12.566-4.427c0.626-3.364,2.212-6.584,4.815-9.188
			c6.868-6.868,18.006-6.868,24.875,0.001c0.989,0.989,1.819,2.074,2.523,3.217c4.873-4.425,12.404-4.299,17.107,0.404
			c4.227,4.227,4.765,10.74,1.624,15.553c3.548-0.33,7.211,0.863,9.927,3.579c4.847,4.847,4.847,12.704,0,17.55
			c-0.01,0.01-0.02,0.018-0.029,0.027c0.196,0.171,0.396,0.339,0.582,0.525c4.351,4.352,4.351,11.404,0,15.754
			c-2.979,2.98-7.228,3.917-11.006,2.814c0.888,4.615-0.454,9.575-4.028,13.148c-5.724,5.725-15.004,5.725-20.729,0
			c-0.917-0.917-1.671-1.934-2.295-3.004c-0.409,0.621-0.886,1.209-1.432,1.756c-4.351,4.351-11.404,4.351-15.754,0
			C-207.177-332.756-207.689-338.499-204.987-342.802z"/>
		<path fill="none" stroke="#FFFFFF" stroke-width="5" stroke-linecap="round" stroke-linejoin="round" stroke-miterlimit="10" d="
			M-285.491-330.232c-1.19,2.17-3.083,3.899-5.371,4.886l-1.823,52.688h16.678l-1.342-51.685
			C-280.709-325.296-283.58-327.41-285.491-330.232z"/>
		<path fill="none" stroke="#FFFFFF" stroke-width="5" stroke-linecap="round" stroke-linejoin="round" stroke-miterlimit="10" d="
			M-183.951-327.764c-0.917-0.917-1.671-1.934-2.295-3.004c-0.409,0.621-0.886,1.209-1.432,1.756
			c-0.791,0.791-1.673,1.434-2.609,1.938l-1.884,54.415h16.678l-1.328-51.186C-179.434-324.434-181.918-325.73-183.951-327.764z"/>
		
			<polygon fill="none" stroke="#FFFFFF" stroke-width="5" stroke-linecap="round" stroke-linejoin="round" stroke-miterlimit="10" points="
			-367.229,-402.909 -367.229,-388.99 -443.566,-388.99 -443.566,-402.909 -673.426,-402.909 -673.426,-379.909 -358.426,-379.909 
			-358.426,-402.909 		"/>
		
			<polygon fill="none" stroke="#FFFFFF" stroke-width="5" stroke-linecap="round" stroke-linejoin="round" stroke-miterlimit="10" points="
			-831.426,-474.409 -729.775,-451.409 -443.566,-451.409 -443.566,-465.328 -367.229,-465.328 -367.229,-451.409 
			-358.426,-451.409 -358.426,-474.409 		"/>
		
			<rect x="-673.426" y="-438.659" fill="none" stroke="#FFFFFF" stroke-width="5" stroke-linecap="round" stroke-linejoin="round" stroke-miterlimit="10" width="230.831" height="23"/>
		
			<rect x="-367.229" y="-438.659" fill="none" stroke="#FFFFFF" stroke-width="5" stroke-linecap="round" stroke-linejoin="round" stroke-miterlimit="10" width="8.803" height="23"/>
		
			<polygon fill="none" stroke="#FFFFFF" stroke-width="5" stroke-linecap="round" stroke-linejoin="round" stroke-miterlimit="10" points="
			-831.426,-451.409 -673.426,-415.659 -673.426,-438.659 -831.426,-474.409 		"/>
		
			<polygon fill="none" stroke="#FFFFFF" stroke-width="5" stroke-linecap="round" stroke-linejoin="round" stroke-miterlimit="10" points="
			-673.426,-415.659 -775.076,-438.659 -831.426,-438.659 -729.775,-415.659 		"/>
		
			<polygon fill="none" stroke="#FFFFFF" stroke-width="5" stroke-linecap="round" stroke-linejoin="round" stroke-miterlimit="10" points="
			-831.426,-308.409 -673.426,-272.659 -673.426,-295.659 -831.426,-331.409 		"/>
		
			<polygon fill="none" stroke="#FFFFFF" stroke-width="5" stroke-linecap="round" stroke-linejoin="round" stroke-miterlimit="10" points="
			-831.426,-344.159 -673.426,-308.409 -673.426,-331.409 -831.426,-367.159 		"/>
		
			<polygon fill="none" stroke="#FFFFFF" stroke-width="5" stroke-linecap="round" stroke-linejoin="round" stroke-miterlimit="10" points="
			-673.426,-379.909 -775.076,-402.909 -831.426,-402.909 -729.775,-379.909 		"/>
		
			<polygon fill="none" stroke="#FFFFFF" stroke-width="5" stroke-linecap="round" stroke-linejoin="round" stroke-miterlimit="10" points="
			-831.426,-379.909 -673.426,-344.159 -673.426,-367.159 -831.426,-402.909 		"/>
		
			<polygon fill="none" stroke="#FFFFFF" stroke-width="5" stroke-linecap="round" stroke-linejoin="round" stroke-miterlimit="10" points="
			-673.426,-344.159 -775.076,-367.159 -831.426,-367.159 -729.775,-344.159 		"/>
		
			<polygon fill="none" stroke="#FFFFFF" stroke-width="5" stroke-linecap="round" stroke-linejoin="round" stroke-miterlimit="10" points="
			-673.426,-308.409 -775.076,-331.409 -831.426,-331.409 -729.775,-308.409 		"/>
	</g>
</g>
<g id="Witte_garage">
	
		<rect x="-811.426" y="-662" fill="#FFFFFF" stroke="#000000" stroke-width="5" stroke-linecap="round" stroke-linejoin="round" stroke-miterlimit="10" width="29" height="35.75"/>
	
		<rect x="-404.426" y="-662" fill="#FFFFFF" stroke="#000000" stroke-width="5" stroke-linecap="round" stroke-linejoin="round" stroke-miterlimit="10" width="29" height="35.75"/>
	
		<rect x="-607.926" y="-662" fill="#FFFFFF" stroke="#000000" stroke-width="5" stroke-linecap="round" stroke-linejoin="round" stroke-miterlimit="10" width="29" height="35.75"/>
	
		<rect x="-506.176" y="-662" fill="#FFFFFF" stroke="#000000" stroke-width="5" stroke-linecap="round" stroke-linejoin="round" stroke-miterlimit="10" width="29" height="35.75"/>
	
		<rect x="-831.426" y="-828" fill="#FFFFFF" stroke="#000000" stroke-width="5" stroke-linecap="round" stroke-linejoin="round" stroke-miterlimit="10" width="473" height="23"/>
	
		<rect x="-831.426" y="-685" fill="#FFFFFF" stroke="#000000" stroke-width="5" stroke-linecap="round" stroke-linejoin="round" stroke-miterlimit="10" width="473" height="23"/>
	
		<rect x="-831.426" y="-720.75" fill="#FFFFFF" stroke="#000000" stroke-width="5" stroke-linecap="round" stroke-linejoin="round" stroke-miterlimit="10" width="473" height="23"/>
	
		<rect x="-831.426" y="-792.25" fill="#FFFFFF" stroke="#000000" stroke-width="5" stroke-linecap="round" stroke-linejoin="round" stroke-miterlimit="10" width="473" height="23"/>
	
		<rect x="-831.426" y="-756.5" fill="#FFFFFF" stroke="#000000" stroke-width="5" stroke-linecap="round" stroke-linejoin="round" stroke-miterlimit="10" width="473" height="23"/>
	
		<polygon fill="#FFFFFF" stroke="#000000" stroke-width="5" stroke-linecap="round" stroke-linejoin="round" stroke-miterlimit="10" points="
		-831.426,-805 -673.426,-769.25 -673.426,-792.25 -831.426,-828 	"/>
	
		<polygon fill="#FFFFFF" stroke="#000000" stroke-width="5" stroke-linecap="round" stroke-linejoin="round" stroke-miterlimit="10" points="
		-831.426,-662 -673.426,-626.25 -673.426,-649.25 -831.426,-685 	"/>
	
		<polygon fill="#FFFFFF" stroke="#000000" stroke-width="5" stroke-linecap="round" stroke-linejoin="round" stroke-miterlimit="10" points="
		-831.426,-697.75 -673.426,-662 -673.426,-685 -831.426,-720.75 	"/>
	
		<polygon fill="#FFFFFF" stroke="#000000" stroke-width="5" stroke-linecap="round" stroke-linejoin="round" stroke-miterlimit="10" points="
		-831.426,-733.5 -673.426,-697.75 -673.426,-720.75 -831.426,-756.5 	"/>
	
		<polygon fill="#FFFFFF" stroke="#000000" stroke-width="5" stroke-linecap="round" stroke-linejoin="round" stroke-miterlimit="10" points="
		-831.426,-769.25 -673.426,-733.5 -673.426,-756.5 -831.426,-792.25 	"/>
	
		<rect x="-443.566" y="-818.918" fill="#FFFFFF" stroke="#000000" stroke-width="5" stroke-linecap="round" stroke-linejoin="round" stroke-miterlimit="10" width="76.338" height="76.337"/>
	<text transform="matrix(1 0 0 1 -430.9834 -750.3027)" font-family="'OpenSans-Semibold'" font-size="83.1733">P</text>
	
		<line fill="none" stroke="#000000" stroke-width="5" stroke-linecap="round" stroke-linejoin="round" stroke-miterlimit="10" x1="-865.426" y1="-626.25" x2="-125.426" y2="-626.25"/>
	
		<polygon fill="none" stroke="#000000" stroke-width="5" stroke-linecap="round" stroke-linejoin="round" stroke-miterlimit="10" points="
		-276.008,-626.25 -292.686,-626.25 -290.12,-700.375 -277.932,-700.375 	"/>
	<g>
		
			<rect x="-431.426" y="-882.933" fill="#FFFFFF" stroke="#000000" stroke-width="5" stroke-linecap="round" stroke-linejoin="round" stroke-miterlimit="10" width="34.5" height="20.933"/>
		
			<line fill="none" stroke="#000000" stroke-width="5" stroke-linecap="round" stroke-linejoin="round" stroke-miterlimit="10" x1="-431.426" y1="-862" x2="-431.426" y2="-828"/>
		
			<rect x="-377.926" y="-882.933" fill="#FFFFFF" stroke="#000000" stroke-width="5" stroke-linecap="round" stroke-linejoin="round" stroke-miterlimit="10" width="34.5" height="20.933"/>
		
			<line fill="none" stroke="#000000" stroke-width="5" stroke-linecap="round" stroke-linejoin="round" stroke-miterlimit="10" x1="-377.926" y1="-862" x2="-377.926" y2="-828"/>
		
			<rect x="-432.426" y="-882.933" fill="#FFFFFF" stroke="#000000" stroke-width="5" stroke-linecap="round" stroke-linejoin="round" stroke-miterlimit="10" width="34.5" height="20.933"/>
		
			<line fill="none" stroke="#000000" stroke-width="5" stroke-linecap="round" stroke-linejoin="round" stroke-miterlimit="10" x1="-432.426" y1="-862" x2="-432.426" y2="-828"/>
		
			<rect x="-378.926" y="-882.933" fill="#FFFFFF" stroke="#000000" stroke-width="5" stroke-linecap="round" stroke-linejoin="round" stroke-miterlimit="10" width="34.5" height="20.933"/>
		
			<line fill="none" stroke="#000000" stroke-width="5" stroke-linecap="round" stroke-linejoin="round" stroke-miterlimit="10" x1="-378.926" y1="-862" x2="-378.926" y2="-828"/>
	</g>
	
		<path fill="#FFFFFF" stroke="#000000" stroke-width="5" stroke-linecap="round" stroke-linejoin="round" stroke-miterlimit="10" d="
		M-254.447-717.54c4.16-2.853,6.893-7.637,6.893-13.062c0-6.816-4.316-12.609-10.359-14.839
		c-0.068-8.468-6.948-15.312-15.433-15.312c-4.858,0-9.187,2.248-12.017,5.755c-2.821-1.937-6.22-3.092-9.901-3.092
		c-9.714,0-17.589,7.875-17.589,17.589c0,1.4,0.181,2.754,0.49,4.06c-6.574,0.317-11.811,5.731-11.811,12.383
		c0,5.976,4.225,10.963,9.849,12.145c-2.741,2.276-4.488,5.709-4.488,9.55c0,6.854,5.557,12.41,12.41,12.41
		c0.014,0,0.026-0.002,0.04-0.002c-0.019,0.26-0.04,0.519-0.04,0.784c0,6.152,4.987,11.14,11.14,11.14
		c4.214,0,7.88-2.341,9.772-5.793c2.636,3.892,7.092,6.45,12.146,6.45c8.095,0,14.657-6.562,14.657-14.658
		c0-1.297-0.186-2.549-0.502-3.747c0.729,0.15,1.482,0.229,2.255,0.229c6.152,0,11.14-4.987,11.14-11.14
		C-245.796-711.985-249.494-716.408-254.447-717.54z"/>
	
		<polygon fill="none" stroke="#000000" stroke-width="5" stroke-linecap="round" stroke-linejoin="round" stroke-miterlimit="10" points="
		-175.493,-626.25 -192.171,-626.25 -189.605,-700.375 -177.417,-700.375 	"/>
	
		<path fill="#FFFFFF" stroke="#000000" stroke-width="5" stroke-linecap="round" stroke-linejoin="round" stroke-miterlimit="10" d="
		M-204.987-696.393c-4.959,0.925-10.273-0.526-14.11-4.362c-4.819-4.82-5.863-11.968-3.167-17.818
		c-5.939-6.036-5.914-15.741,0.085-21.74c3.436-3.435,8.086-4.906,12.566-4.427c0.626-3.365,2.212-6.584,4.815-9.188
		c6.868-6.869,18.006-6.869,24.875,0c0.989,0.99,1.819,2.075,2.523,3.217c4.873-4.425,12.404-4.299,17.107,0.405
		c4.227,4.226,4.765,10.739,1.624,15.552c3.548-0.329,7.211,0.863,9.927,3.58c4.847,4.846,4.847,12.704,0,17.55
		c-0.01,0.01-0.02,0.018-0.029,0.027c0.196,0.171,0.396,0.339,0.582,0.526c4.351,4.351,4.351,11.404,0,15.754
		c-2.979,2.98-7.228,3.917-11.006,2.814c0.888,4.616-0.454,9.575-4.028,13.149c-5.724,5.724-15.004,5.724-20.729,0
		c-0.917-0.917-1.671-1.934-2.295-3.004c-0.409,0.621-0.886,1.21-1.432,1.756c-4.351,4.351-11.404,4.351-15.754,0
		C-207.177-686.347-207.689-692.09-204.987-696.393z"/>
</g>
</svg>
