<?xml version="1.0" encoding="utf-8"?>
<!-- Generator: Adobe Illustrator 15.1.0, SVG Export Plug-In . SVG Version: 6.00 Build 0)  -->
<!DOCTYPE svg PUBLIC "-//W3C//DTD SVG 1.1//EN" "http://www.w3.org/Graphics/SVG/1.1/DTD/svg11.dtd">
<svg version="1.1" id="Layer_1" xmlns="http://www.w3.org/2000/svg" xmlns:xlink="http://www.w3.org/1999/xlink" x="0px" y="0px"
	 width="1024px" height="768px" viewBox="0 0 1024 768" enable-background="new 0 0 1024 768" xml:space="preserve">
<line fill="none" stroke="#FFFFFF" stroke-width="5" stroke-linecap="round" stroke-linejoin="round" stroke-miterlimit="10" x1="57" y1="660.5" x2="989" y2="660.5"/>
<line fill="none" stroke="#F9E426" stroke-width="20" stroke-linecap="round" stroke-linejoin="round" stroke-miterlimit="10" x1="283.544" y1="371.328" x2="278.154" y2="535.398"/>
<line fill="none" stroke="#F9E426" stroke-width="20" stroke-linecap="round" stroke-linejoin="round" stroke-miterlimit="10" x1="392.048" y1="438.815" x2="326.241" y2="554.326"/>
<line fill="none" stroke="#F9E426" stroke-width="20" stroke-linecap="round" stroke-linejoin="round" stroke-miterlimit="10" x1="498.455" y1="476.737" x2="369.242" y2="577.99"/>
<path fill="none" stroke="#FFFFFF" stroke-width="5" stroke-linecap="round" stroke-linejoin="round" stroke-miterlimit="10" d="
	M672.5,239.5l9-6.5v15l15.442-9.209L508.043,588.854c-30.02,57.11-87.846,85.979-129.142,64.271l-131.27-69.26
	c-5.866-3.084-8.122-10.339-5.039-16.205l5.583-10.622c3.083-5.866,10.339-8.122,16.206-5.038l99.138,52.111
	c5.865,3.084,8.122,10.339,5.038,16.205l-3.723,7.082l21.244,11.166c31.512,16.564,79.324-10.836,104.683-59.077L670.97,227.41
	L672.5,239.5z"/>
<polyline fill="none" stroke="#FFFFFF" stroke-width="5" stroke-linecap="round" stroke-linejoin="round" stroke-miterlimit="10" points="
	718,195.871 722,186 725.798,190.993 730.905,660.5 696.095,660.5 701.183,192.743 707,199 711,186 718,195.871 "/>
</svg>
