<?xml version="1.0" encoding="utf-8"?>
<!-- Generator: Adobe Illustrator 15.1.0, SVG Export Plug-In . SVG Version: 6.00 Build 0)  -->
<!DOCTYPE svg PUBLIC "-//W3C//DTD SVG 1.1//EN" "http://www.w3.org/Graphics/SVG/1.1/DTD/svg11.dtd">
<svg version="1.1" id="Layer_1" xmlns="http://www.w3.org/2000/svg" xmlns:xlink="http://www.w3.org/1999/xlink" x="0px" y="0px"
	 width="1024px" height="768px" viewBox="0 0 1024 768" enable-background="new 0 0 1024 768" xml:space="preserve">
<g>
	<path fill="none" stroke="#FFFFFF" stroke-width="5" d="M204.214,178.655c1.078,1.847-1.766,5.333-1.044,7.746
		c4.434,14.833,19.036,6.324,29.574,2.58c10.605-3.768,30.269-3.245,32.427-15.992c0.363-2.141-1.719-12.511-3.05-14.323
		c-3.756-5.117-10.9-1.816-13.317-7.438c-8.857-0.524-23.404,1.11-31.145-3.142c0.452-5.059,0.154-11.995-5.121-13.239
		c-6.565-1.549-8.958,3.974-8.173,9.141c0.789,5.195,6.528,1.479,4.331,8.738c-0.841,2.772-10.06,7.317-12.149,9.773
		c-2.015,2.369-3.43,8.042-0.07,12.44C198.298,177.33,202.449,175.631,204.214,178.655z"/>
	<path fill="none" stroke="#FFFFFF" stroke-width="5" d="M391.749,308.334c12.117-1.358,10.996-11.808,20.308-16.226
		c12.807-6.078,18.77,33.621,19.729,43.841c0.493,5.263,0.578,18.426,6.575,21.042c10.611,4.627,14.964-10.872,19.166-14.384
		c3.543-2.962,6.916-1.603,10.512-5.869c2.792-3.313,5.589-7.136,7.404-11.244c3.4-7.698,1.276-17.578,4.238-25.739
		c3.124-8.605,13.009-15.381,11.221-25.783c-1.642-9.552-12.567-11.218-16.089-19.969c-8.223-20.448,14.823-35.375,19.855-52.424
		c2.533-8.586,0.943-19.605,4.794-27.641c3.655-7.629,14.955-10.487,19.081-0.976c3.269,7.534-2.979,25.06-5.722,32.195
		c-3.867,10.06-8.96,18.909-9.547,29.832c-0.519,9.664,2.264,20.665,9.762,26.614c8.967,7.116,19.601,0.254,29.289-4.479
		c18.633-9.103,36.344-22.252,38.148-45.06c1.479-18.679-18.279-27.279-25.494-42.915c-3.213-6.962-3.735-17.759-5.693-25.637
		c-3.361-13.532-5.612-14.734-16.464-22.952c-8.622-6.529-7.797-12.266-1.007-20.527c4.573-5.561,14.12-18.34,3.877-25.103
		c-12.336-8.147-50.605,15.086-59.803,22.95c-14.483,12.387-21.386,31.723-31.504,47.465c-4.797,7.463-6.386,14.569-7.813,22.822
		c-2.202,12.717-18.765,37.326-23.853,41.988c-8.331,7.637-17.322,15.188-25.758,22.713c-7.301,6.517-14.331,12.12-16.18,22.067
		c-1.852,9.954,1.159,23.501,2.624,33.432C375.072,299.637,378.968,309.766,391.749,308.334z"/>
	<path fill="none" stroke="#FFFFFF" stroke-width="5" d="M236.383,391.28c5.723-6.28,3.381-15.622,7.607-22.871
		c3.021-5.182,13.816-17.073,6.74-24.164c-2.122-2.125-21.286-3.057-23.939-0.926c-2.662,2.139,1.02,7.922-2.537,10.119
		c-3.807,2.351-9.127-7.276-12.647-4.119c-3.198,2.866-0.874,14.221-0.905,17.157c-0.112,10.651-12.581,8.699-15.848,17.16
		C187.178,403.527,228.392,400.048,236.383,391.28z"/>
	<path fill="none" stroke="#FFFFFF" stroke-width="5" d="M258.364,321.552c1.144-0.171,3.042-0.242,4.708-0.377
		c4.502,1.879,2.354,9.331,1.938,13.613c-0.998,10.299,1.277,8.509,7.807,15.223c3.938,4.05,5.763,9.5,5.51,15.561
		c-0.151,3.6-0.108,7.878-2.882,10.531c-1.946,1.863-5.202,0.495-6.648,1.815c-3.29,3.007-2.294,1.805-4.77,5.716
		c-0.975,1.537-4.01,8.054-4.575,9.765c-0.98,2.97-2.843,3.912-1.901,7.604c1.103,4.322,5.803,3.47,6.764,6.223
		c4.937,14.143-37.362-0.205-21.012,21.281c11.862,0.794,21.021-5.073,32.929-2.935c8.086,1.452,16.226,8.118,24.875,6.479
		c9.172-1.737,16.221-13.367,18.228-21.921c2.009-8.547-4.493-14.629-6.691-22.666c-1.565-5.734-0.459-10.664-4.079-16.267
		c-2.029-3.14-6.372-5.112-8.123-7.816c-4.473-6.911-0.597-14.628-4.698-22.64c-5.327-10.402-8.741-9.729-2.16-20.251
		c2.162-3.459,7.206-5.359,4.596-10.988c-1.487-3.208-7.612-2.503-9.15-5.225c-4.048-7.166,7.902-8.712,3.431-16.748
		c-6.245-0.897-21.313,1.321-24.683,6.484c-1.47,2.25-1.25,10.115-2.611,13.338C263.164,312.088,258.574,315.981,258.364,321.552z"
		/>
	<path fill="none" stroke="#FFFFFF" stroke-width="5" d="M876.799,521.72c0.013-6.235,5.744-10.035,3.756-16.823
		c-1.062-3.629-6.583-6.878-8.244-10.697c-4.973-11.425-2.574-14.336-18.633-14.294c-13.023,0.034-27.026,2.503-39.699,4.815
		c-10.1,1.842-21.818,4.52-9.724,14.241c8.011,6.437,24.821,12.359,17.919,25.738c-6.791,13.166-31.099,11.316-43.175,12.414
		c-11.681,1.061-23.576,2.35-35.161,3.772c-16.087,1.976-25.608,0.604-34.825,12.359c-10.524,13.426-26.378,24.021-43.563,25.921
		c-1.081,6.114-18.094,17.34-25.206,12.114c-11.216-8.242,8.314-13.008,9.833-17.951c2.496-8.123-10.448-13.355-9.547-23.054
		c0.535-5.736,3.58-9.81,4.789-15.972c1.857-9.456,0.282-19.536,1.833-28.898c1.901-11.472,12.262-27.988,24.879-28.432
		c17.481-0.615,12.462,15.392,25.901,21.296c7.486,3.288,10.594,1.151,16.641-1.934c4.059-2.071,19.014-10.289,20.623-14.291
		c4.357-10.854-11.623-3.921-17.534-7.099c-10.902-5.863-0.55-17.178,5.045-22.757c7.916-7.895,13.646-15.763,19.12-25.591
		c3.686-6.621,8.207-22.002,3.596-29.668c-4.953-8.239-20.76-5.955-29.101-7.578c-9.846-1.918-23.79-0.846-32.971-4.028
		c-8.355-2.897-10.019-13.444-20.19-13.174c-7.834,0.208-24.48,12.931-30.172,1.022c-4.57-9.567,12.381-6.234,8.509-17.157
		c-3.184-8.982-18.968-11.453-25.533-16.97c-5.567-4.677-5.986-11.682-11.614-15.461c-9.04-6.073-17.704-2.921-23.942-14.326
		c-3.637-6.645-6.781-16.143-9.479-22.777c-2.779-6.827-2.784-17.554-11.402-20.134c-7.123-2.132-17.059,5.322-21.728,9.865
		c-6.844,6.659-9.541,11.763-1.907,18.612c3.247,2.912,6.555,1.737,9.532,6.788c2.622,4.448,3.406,9.109,2.503,14.25
		c-8.978,1.097-15.539-7.708-22.731-6.599c-5.666,0.871-6.443,5.957-7.622,10.777c-2.392,9.789-0.701,10.821,5.504,16.882
		c6.005,5.866,22.278,15.509,18.336,26.734c-2.85,8.115-16.019,5.336-22.795,4.304c-12.465-1.899-21.735-3.34-33.486,1.16
		c-7.815,2.992-20.329,13.061-28.562,12.601c-12.201-0.683-9.293-11.657-23.38-6.668c-4.566,1.617-6.532,4.996-11.655,2.213
		c-3.875-2.104-6.844-9.332-5.116-13.67c2.762-6.941,15.967-5.243,13.32-15.068c-6.318-3.511-9.65-12.553-13.255-18.223
		c-2.693-4.237,0.757-6.039-5.642-6.744c-3.645-0.402-10.619,5.512-12.301,8.391c-5.453,9.337,0.621,19.295,1.839,28.588
		c0.621,4.743,2.609,26.114,0.231,28.138c-3.467,2.945-6.711-1.268-9.816-1.232c-6.651,0.079-5.168,3.055-10.454,4.599
		c-7.337,2.144-12.77-4.505-20.301,0.857c-6.633,4.724-6.563,14.484-9.969,21.283c-4.062,8.11-11.109,12.282-19.397,15.913
		c-6.793,2.975-10.949,5.599-15.626,10.696c-5.131,5.595-10.918,12.192-18.689,13.345c-10.325,1.529-7.959-9.966-15.177-9.569
		c-9.054,0.496-4.426,14.325-5.121,18.984c-10.796,1.795-26.142-16.141-35.67-3.971c-5.992,7.648,9.415,17.223,16.135,21.669
		l-2.027-1.351c7.952,1.002,7.995,13.191,10.462,20.042c2.704,7.505,9.938,10.331,9.55,19.036
		c-0.342,7.684-7.814,16.216-10.505,23.567c-3.591,9.809-4.712,17.111-16.872,14.372c-17.718-3.992-34.795-15.312-51.946-20.594
		c-8.8-2.71-19.907-3.438-27.586,1.699c-10.078,6.742-8.617,17.031-7.515,27.85c1.197,11.751,0.266,17.202-5.647,27.218
		c-5.461,9.256-10.665,19.122-10.508,30.784c0.09,6.624-0.087,19.694,4.793,24.01c5.706,5.046,16.536-0.635,23.54,5.701
		c8.562,7.746,3.662,15.495,17.232,16.204c9.992,0.521,19.123-1.576,29.5,0.506c18.745,3.763,42.192-4.083,48.152-24.309
		c3.057-10.371-2.329-21.878,3.557-31.449c7.507-12.211,22.14-7.022,34.073-9.828c12.418-2.92,15.334-9.571,19.3-21.177
		c4.642-13.588,10.843-15.631,23.834-14.302c8.267,0.847,19.909,3.49,27.848,1.479c7.87-1.993,11.889-10.588,19.805-12.723
		c27.845-7.509,22.718,20.245,35.481,33.197c14.248,14.455,34.744,20.907,51.278,31.159c6.348,3.937,14.545,11.506,14.293,19.597
		c-0.39,12.654-14.963,15.112-25.033,16.201c-6.808,0.733-25.393-1.702-23.613,9.551c1.321,8.366,18.702,8.263,25.775,10.653
		c13.671,4.617,11.504,3.261,12.582-8.98c0.926-10.529,6.195-11.292,13.153-17.95c3.332-3.191,6.68-6.149,8.312-10.7
		c2.596-7.227-3.426-8.907-2.705-13.081c1.314-7.619,19.517-7.124,8.665-16.168c-6.088-5.072-16.692-5.676-23.876-11.278
		c-7.324-5.712-11.579-12.181-18.11-19.142c-7.716-8.226-42.934-35.803-25.633-46.595c8.432-5.261,11.047,4.599,18.175,7.429
		c4.092,1.624,9.765,0.224,13.487,3.504c3.573,3.149,4.735,8.787,7.815,12.624c11.457,14.274,33.164,11.65,46.114,23.161
		c8.605,7.646,12.796,26.378,11.719,38.806c5.974,3.249,12.554,11.928,17.231,16.913c7.577,8.074,5.242,11.819,8.289,21.279
		c2.192,6.81,10.651,16.857,19.135,13.315c7.217-3.019,3.661-12.347-1.046-17.153c3.311-3.029,9.529-2.751,14.249-3.981
		c1.452-5.388-2.415-5.057-3.643-8.65c-1.073-3.145-1.532-8.084-2.885-12.151c-3.425-10.284-17.032-14.721-7.653-25.97
		c6.105-7.321,17.651-8.725,26.737-8.344c12.891,0.54,10.485,2.974,12.582,14.084c4.212,22.337,33.842,36.011,54.119,41.915
		c13.173,3.834,16.465-1.053,27.521-5.244c10.918-4.138,26.661,2.053,35.432-6.812c6.407-6.478,5.612-10.975,15.415-14.657
		c11.219-4.215,23.161-7.429,34.793-11.199c18.178-5.893,32.959-16.646,48.922-26.078c9.37-5.535,30.247-18.384,30.498-32.253
		c0.135-7.441-8.185-8.217-9.574-15.951C861.758,528.95,869.535,526.082,876.799,521.72z"/>
	<path fill="none" stroke="#FFFFFF" stroke-width="5" d="M256.525,481.254l0.832,0.555
		C257.1,481.635,256.817,481.446,256.525,481.254z"/>
	<path fill="none" stroke="#FFFFFF" stroke-width="5" d="M408.909,609.531c-4.429-2.186-19.924,5.854-20.754,10.036
		c-0.398,2.004,1.7,9.552,1.693,12.841c-0.005,3.075-1.231,9.318,0.692,11.646c5.912,7.157,15.057-4.559,17.461-10.65
		c0.595-1.508,3.721-9.861,3.789-10.718c0.517-6.412-2.261-6.883-4.789-13.154H408.909z"/>
	<path fill="none" stroke="#FFFFFF" stroke-width="5" d="M403.156,595.991c1.045-1.184,1.986-2.47,2.894-3.615L403.156,595.991z"/>
	<path fill="none" stroke="#FFFFFF" stroke-width="5" d="M409.696,578.223c-12.653-3.379-15.311,13.238-14.941,21.634
		c3.194,0.534,5.591-0.96,7.593-2.997C405.049,589.908,414.278,587.435,409.696,578.223z"/>
	<path fill="none" stroke="#FFFFFF" stroke-width="5" d="M402.236,597.141l0.92-1.149c-0.262,0.298-0.532,0.587-0.809,0.868
		C402.311,596.953,402.272,597.044,402.236,597.141z"/>
	<path fill="none" stroke="#FFFFFF" stroke-width="5" d="M620.916,688.6c-5.762-0.286-14.936-1.901-19.515,0.047
		c-7.133,3.037-5.933,7.455,1.211,9.526c7.094,2.059,46.03-1.995,44.491-10.34C638.324,687.474,629.716,688.392,620.916,688.6z"/>
</g>
<circle fill="#28A9F7" stroke="#FFFFFF" stroke-width="5" cx="280.046" cy="379.742" r="12.002"/>
<circle fill="#28A9F7" stroke="#FFFFFF" stroke-width="5" cx="354.046" cy="416.742" r="12.002"/>
<circle fill="#28A9F7" stroke="#FFFFFF" stroke-width="5" cx="292.046" cy="596.742" r="12.002"/>
<circle fill="#28A9F7" stroke="#FFFFFF" stroke-width="5" cx="156.046" cy="620.742" r="12.002"/>
<circle fill="#28A9F7" stroke="#FFFFFF" stroke-width="5" cx="445.046" cy="592.742" r="12.002"/>
<circle fill="#28A9F7" stroke="#FFFFFF" stroke-width="5" cx="634.045" cy="593.742" r="12.002"/>
<circle fill="#28A9F7" stroke="#FFFFFF" stroke-width="5" cx="569.045" cy="599.742" r="12.002"/>
<circle fill="#28A9F7" stroke="#FFFFFF" stroke-width="5" cx="512.045" cy="252.742" r="12.002"/>
</svg>
